<?xml version="1.0" encoding="utf-8"?>
<!-- Generator: Adobe Illustrator 27.2.0, SVG Export Plug-In . SVG Version: 6.00 Build 0)  -->
<svg version="1.1" id="Layer_1" xmlns="http://www.w3.org/2000/svg" xmlns:xlink="http://www.w3.org/1999/xlink" x="0px" y="0px"
	 viewBox="0 0 184 205.5" style="enable-background:new 0 0 184 205.5;" xml:space="preserve">
<style type="text/css">
	.st0{stroke:#231F20;stroke-miterlimit:10;}
</style>
<path class="st0" d="M96.8,11.3L96,11.2l-76.7,8v140.6L96,205.5l76.7-45.6V19.3L96.8,11.3z M162.7,154.1L96,193.8l-66.7-39.7V96.5
	L95.7,136l0.1,7.2l-45.5-27.1l-0.1,7l45.7,27.5l0.1,7.3l-45.7-27.2l-0.1,7L96,165.1l46.2-27.6v-7l-0.1,0v-2.4v-2.9v-17.5l20.6-12.3
	V154.1z M162.6,88.1l-18.2,10.7l-8.4,5L95.8,79.9l-0.1,7l34.3,20.4l-0.3,0.2l-0.7,0.4l-4.9,2.9L95.8,93.9l-0.1,7l22.4,13.3l-5.3,3.5
	l-0.1,0.1l-16.9-10l-0.1,7l11.1,6.5L95.5,128l-66-39.3L95.6,49v0L162.6,88.1z M162.7,81.1l-67-39.5v0l0,0l0,0v0L29.3,81V28.3l66.7-7
	l66.7,7V81.1z"/>
</svg>
