<?xml version="1.0" encoding="UTF-8"?>
<svg id="Layer_1" xmlns="http://www.w3.org/2000/svg" version="1.1" viewBox="0 0 22 20">
  <!-- Generator: Adobe Illustrator 29.2.1, SVG Export Plug-In . SVG Version: 2.1.0 Build 116)  -->
  <defs>
    <style>
      .st0 {
        fill: #fff;
      }
    </style>
  </defs>
  <g id="Page-1">
    <g id="Core">
      <g id="thumb-up">
        <g id="Shape">
          <path class="st0" d="M12.38,3.65l-.64,2.93-.53,2.42h8.68v2s0,.04,0,.06l-2.9,6.94h-9v-9.97h.01s4.37-4.38,4.37-4.38M2,10v8-8M13.2,0l-6.6,6.6c-.4.3-.6.8-.6,1.4v10c0,1.1.9,2,2,2h9c.8,0,1.5-.5,1.8-1.2l3-7.1c.1-.2.1-.5.1-.7v-2h.1c0-1.1-.9-2-2-2h-6.3l1-4.6v-.3c0-.4-.2-.8-.4-1.1l-1.1-1h0ZM4,8H0v12h4v-12h0ZM22,9v.04-.04h0Z"/>
        </g>
      </g>
    </g>
  </g>
</svg>