<?xml version="1.0" encoding="UTF-8"?>
<svg id="Layer_1" xmlns="http://www.w3.org/2000/svg" version="1.1" viewBox="0 0 101.67 83.98">
  <!-- Generator: Adobe Illustrator 29.2.1, SVG Export Plug-In . SVG Version: 2.1.0 Build 116)  -->
  <defs>
    <style>
      .st0 {
        fill: #f4b1a4;
      }

      .st1 {
        fill: #fff;
      }

      .st2 {
        fill: #f49774;
      }

      .st3 {
        fill: #491213;
      }

      .st4 {
        fill: #23a9e1;
      }

      .st5 {
        fill: #dc6243;
      }
    </style>
  </defs>
  <g id="Layer_2">
    <g>
      <g id="Layer_21" data-name="Layer_2">
        <g>
          <polygon class="st4" points="0 0 50.58 59.05 101.67 0 0 0"/>
          <path class="st3" d="M50.92,0H0v22.46l50.58,61.52.34-.42,50.75-60.39V0h-50.75ZM50.92,57.05l-.34.41L3.71,1.78h94.42l-47.21,55.27Z"/>
          <path class="st3" d="M50.58,57.46l.34-.41,27.58-32.29c-6.91.95-11.86,6.08-18.6,4.95-3.4-.56-3.5-2.51-4.47-4.45-.75-1.49-1.94-1.3-3.49-1.91-1.44-.56-2.28-1.74-5.16-1.06-2.53.59-2.81,4.52-5.95,4.29-1.69-.12-1.81-2.5-4.24-5.54-6.3-7.57-12.16-6.52-16.25.47l30.25,35.94Z"/>
          <g>
            <path class="st1" d="M23.28,32.25c.51.62.89,1.28.81,2.12-.06.58-.94,1.55-.27,1.85.75-.94,1.5-1.89,2.24-2.83-.6-.15-5.37-5.85-5.44-6.47-1.05.58-2.11,1.16-3.16,1.73.16.66,1.3,0,1.85.05.83.06,1.42.56,1.95,1.15-1.73,1.45-5.93,5.02-6.38,5.09-.23.04-1.09-.6-1.1-.05,0,.26.85,1.01,1.01,1.21.74.88,1.49,1.77,2.23,2.65.62-.28-.11-.73.2-1.24.23-.37,4.9-4.27,6.04-5.24h0Z"/>
            <path class="st1" d="M18.01,25.27c.44-.09.62.43.96-.06-.81-.97-1.63-1.95-2.45-2.92-.37-.44-.84-.92-.71.02.09.63-6.11,5.66-6.49,5.82-.48.2-.76-.42-1.11.1.73.87,1.46,1.74,2.19,2.61.25.29.48.61.75.88.34.34.21-.67.22-.59-.09-.51.53-.95.85-1.23,1.55-1.36,5.4-4.59,5.78-4.64Z"/>
            <path class="st1" d="M9.24,24.35c-1.77.52-3.65-.16-4.21-2.04-.54-1.83.61-3.76,2.07-4.8,1.44-1.03,3.59-.97,4.37.84.35.8.16,1.71-.09,2.5-.16.51-.6,1,.06,1.29.86-1.1,1.72-2.19,2.58-3.29-1.06-.63-1.52-1.68-2.3-2.6-.88-1.07-2.06-2.08-3.48-2.28-2.87-.41-5.57,2.56-5.79,5.24-.14,1.46.37,2.85,1.25,4,.75.99,1.87,1.62,2.44,2.75.26.09,2.7-1.03,3.29-1.26-.05-.11-.09-.27-.17-.37-.76.23,0,0,0,0Z"/>
            <path class="st1" d="M48.54,60.76c-1.15-.77-4.03-4.69-4.57-5.34-.11-.13-.22-.26-.33-.39-.01-.02-.28.22-.25.19-.17.15.13.57-.05.87-.79,1.24-5.76,4.98-6.02,5.16-.55.38-1.16-.16-1.49.31.72.86,2.78,3.54,3.02,3.58.48.08.15-.81.21-1,.12-.37,2.63-2.45,3.55-3.21.34-.28.69.43.89.72.33.48.47,1,.3,1.57-.12.37-.72.92-.25,1.17.62-.72,2.36-2.75,2.61-3.05.25-.29-.57-.04-.47-.09-.37.19-.72.23-1.06-.03-.1-.07-1.09-1.08-.99-1.17.43-.36.96-.96,1.52-1.1.86-.21,1.58,1.52,1.71,2.13.12.58.1,1.19-.08,1.75-.12.39-.49.7.02.93.71-.97,1.42-1.94,2.13-2.92-.15,0-.28-.02-.4-.09-.13-.08.14.07,0,0Z"/>
            <path class="st1" d="M38.31,56.63c2.21-1.86,2.48-5.05.77-7.34-1.87-2.49-5.37-3.1-7.81-1.05-2.2,1.85-2.49,5.05-.76,7.32,1.99,2.62,5.2,2.92,7.79,1.07,1.16-.97-.1.07,0,0ZM37.85,51.88c-.65,1.51-2.2,3.06-3.73,3.67-1.82.71-3.1-.83-2.36-2.55.65-1.52,2.2-3.06,3.74-3.67,1.85-.73,3.07.85,2.36,2.55-.38.89.07-.17,0,0Z"/>
            <path class="st1" d="M31.87,42.02c.48.06.93.55,1.27.04-.74-.88-1.48-1.76-2.23-2.64-.6.27.05.55-.19.97-.24.43-2.56.78-3.18.89.22-.64.9-2.62,1.16-2.83.54-.44.88.43,1.28-.14-.92-1.08-1.83-2.17-2.74-3.25-.31-.37-.56-1.03-.98-.68.04-.03,0,1.47-.09,1.73-.09.24-.94,3.64-1.93,4.47-.49.41-2.24,1.93-2.7,2.1-.54.19-.82-.6-1.22-.04.83.99,1.66,1.97,2.49,2.96.12.15.6.86.77.89.52.1.06-.89.11-1.09.15-.43,2.5-2.72,3.5-2.86,1.46-.21,3.2-.71,4.68-.53.34.04-.35-.04,0,0Z"/>
          </g>
          <g>
            <path class="st1" d="M69.21,52.45c.19.65.3,1.33.21,2.01-.11.87-.98,2.92-2.17,2.34-1.17-.57-2.19-1.73-3.19-2.55.8-.94,1.51-1.75,2.85-1.29.37.12.69-.04.3-.26-.4-.23-3.11-1.96-3.26-1.8-.27.31.53.87.22,1.47-.23.45-.61.83-.93,1.22-.72-.61-1.92-1.25-1.06-2.26.54-.66,1.25-1.17,2.1-1.34.56-.11,1.84.39,2.01-.22-1.09-.52-2.17-1.04-3.26-1.56.18.8-3.35,4.52-4.13,5.46-.11.14-.66.61-.66.8,0,.43.62.1.66.08.49-.18,6.82,5.11,6.97,5.47.1.28-.22.57-.03.73-.01,0,.23.22.25.19.39-.47,4.52-5.98,5.37-6.22-.79-1.21-1.59-2.43-2.37-3.65-.59.26-.02.95.11,1.39Z"/>
            <path class="st1" d="M63.04,59.15c-2.08-1.34-5.6,1.28-6.12,1.53-1.04.49-1.79-.54-1.25-1.5.47-.83,1.39-1.23,2.31-1.29.28-.02,1.35.2,1.46.03.13-.2.23-.22.04-.35-.85-.58-1.71-1.15-2.57-1.73-.18,1.06-1.39,1.73-2.08,2.44-.82.86-1.52,1.93-1.52,3.16,0,1.13.68,2.14,1.68,2.66,1.14.59,2.32.12,3.32-.51.63-.39,1.25-.86,1.92-1.17,1-.47,2.31-.06,1.95,1.27-.28,1.07-1.35,2.06-2.4,2.34-.62.16-1.27.11-1.87-.09-.43-.14-.99-.73-1.23-.11,1.16.85,2.32,1.69,3.48,2.54.1-.76.52-1.09,1.09-1.56.74-.65,1.44-1.32,1.99-2.13,1.16-1.69,1.54-4.06-.21-5.51Z"/>
            <path class="st1" d="M63.04,59.15c.93.6-.59-.49,0,0h0Z"/>
            <path class="st1" d="M92.28,21.84s0,0,0,0h0Z"/>
            <path class="st1" d="M99.73,19.63c-.73.73-8.42-2.34-8.98-2.76-.29-.12-.3-1.32-.71-.83-.4.49-.81.98-1.21,1.46-.42.51-.84,1.01-1.26,1.51-.26.31-.54.46-.04.72.84-.42,5.42,7.35,5.01,8.46-.73.38-6.91-5.06-7.08-5.42-.05-.15.27-1.02-.21-.95-.23.04-.74.9-.89,1.07-.3.36-.59.71-.89,1.07.33.48.52-.02.96.04.38.08,1.84,1.33,2.24,1.66-.73.03-2.69.13-2.93.11-.9.11-.42-.66-1.02-.93-.76.92-1.52,1.84-2.28,2.76-.44.54-.88,1.07-1.33,1.61-.05.07-.05.03.05.11.33.27.1.17.57,0,.51-.18,6.56,4.93,6.78,5.19.38.45-.15.98.41,1.22.6-.73,1.2-1.46,1.8-2.18.09-.11.14-.1.02-.2-.43-.35-.48.21-1,.15-.53-.09-4.4-3.37-5.9-4.61,1.82-.07,7.29-.27,8.2-.3.3-.01,1.14.9,1.07,1.22-.08.38-.46.56.06.79.48-.58.98-1.15,1.46-1.73h0l.23-.28c.08-.05.15-.15.21-.26l.17-.21c.43-.49,1.8-2.01,1.63-2.15-.46-.4-.68.47-1.3-.05-.35-.25-1.22-1.79-1.44-2.16-.26-.45.61-.9.96-1.12.78-.48,3.25-1.18,3.48.35.04.26-.27.55-.08.7.04.04.21.24.27.16.16-.2,2.36-2.84,3.3-3.97-.1-.08-.21-.22-.32-.27ZM92.36,21.78c.08-.05.15-.1,0,0-.05.03-.07.05-.08.05.01,0,.05-.03.08-.05-.35.22-.67.47-.96.76-.52-.9-1.04-1.79-1.56-2.69,1.18.49,2.35.99,3.52,1.48-.35.1-.69.25-1,.45Z"/>
            <path class="st1" d="M82.62,33c-2.37-1.98-5.63-1.4-7.59.83-1.9,2.31-1.71,5.66.61,7.62,2.34,1.93,5.67,1.44,7.57-.85,1.9-2.3,1.77-5.67-.59-7.6ZM82.33,39.61s-.02.03-.03.03c-1.23,1.29-3.36.1-4.51-.73-1.15-.83-3.11-2.57-1.86-4.1,1.06-1.29,3.12-.23,4.19.48,1.2.8,3.41,2.6,2.28,4.22.07-.09.13-.15-.08.11Z"/>
            <path class="st1" d="M82.62,33c1.17.96-.25-.21,0,0h0Z"/>
            <path class="st1" d="M82.31,39.64s.02-.02.03-.03c.03-.04.06-.07.08-.11-.05.06-.11.14-.11.14Z"/>
            <path class="st1" d="M76.02,42.12c.11.09.27.22-.06-.06-2.84-2.13-6.19-1.5-8.4,1.16-.99,1.19-1.98,2.38-2.96,3.57.35.51.76-.12,1.27.18.44.25,6.24,5.1,6.34,5.36.16.46-.25.55.14.88.17.14,4.54-5.24,4.94-6.19.69-1.75.14-3.68-1.27-4.89ZM74.71,48.87c-.24.3-.04.05-.66.65-.31.29-6.44-4.68-6.19-4.94.83-.92,2.57-1.56,3.58-1.3,2.19.56,5.21,3.26,3.28,5.59Z"/>
          </g>
        </g>
      </g>
      <path class="st3" d="M50.58,57.48l.34-.41,27.58-32.29c-6.91.95-11.86,6.08-18.6,4.96-3.4-.56-3.5-2.51-4.47-4.46-.75-1.49-1.94-1.3-3.49-1.91-1.44-.56-2.28-1.74-5.16-1.06-2.53.59-2.81,4.52-5.95,4.29-1.69-.12-1.81-2.5-4.24-5.54-6.3-7.57-12.16-6.52-16.25.48l30.25,35.94Z"/>
      <polygon class="st4" points="46.56 70.92 50.58 64.42 54.58 70.92 50.58 77.43 46.56 70.92"/>
      <g>
        <path class="st1" d="M23.28,32.27c.51.62.89,1.28.81,2.12-.06.58-.94,1.55-.27,1.85.75-.94,1.5-1.89,2.24-2.83-.6-.15-5.37-5.85-5.44-6.47-1.05.58-2.11,1.16-3.16,1.73.16.66,1.29,0,1.85.05.83.06,1.42.56,1.95,1.15-1.73,1.45-5.93,5.02-6.37,5.09-.23.04-1.09-.6-1.1-.06,0,.26.85,1.01,1.01,1.21.74.88,1.49,1.77,2.23,2.65.62-.28-.11-.73.21-1.24.23-.37,4.9-4.27,6.04-5.24h0Z"/>
        <path class="st1" d="M18.01,25.29c.44-.1.62.43.96-.06-.82-.97-1.63-1.94-2.45-2.92-.37-.44-.84-.92-.71.02.09.63-6.11,5.66-6.49,5.82-.48.2-.76-.42-1.11.1.73.87,1.46,1.74,2.19,2.61.25.29.48.61.75.88.34.34.21-.67.22-.58-.09-.51.53-.95.86-1.23,1.55-1.36,5.4-4.59,5.78-4.64Z"/>
        <path class="st1" d="M9.24,24.37c-1.77.52-3.65-.16-4.21-2.04-.54-1.83.61-3.76,2.07-4.8,1.44-1.03,3.59-.97,4.37.84.35.8.16,1.71-.09,2.5-.16.51-.6,1,.06,1.29.86-1.1,1.72-2.19,2.58-3.29-1.06-.63-1.52-1.68-2.3-2.6-.88-1.07-2.06-2.08-3.48-2.28-2.87-.41-5.57,2.56-5.79,5.24-.14,1.46.37,2.85,1.25,4,.75.99,1.87,1.62,2.43,2.75.26.09,2.71-1.03,3.29-1.26-.05-.11-.09-.27-.17-.37-.76.23,0,0,0,0Z"/>
        <path class="st1" d="M48.54,60.78c-1.15-.77-4.03-4.69-4.57-5.34-.11-.13-.22-.26-.33-.39-.01-.01-.28.22-.25.19-.17.15.13.57-.05.86-.79,1.24-5.76,4.98-6.02,5.16-.56.38-1.16-.16-1.49.32.72.85,2.78,3.54,3.02,3.58.48.08.15-.81.21-1,.12-.37,2.63-2.45,3.55-3.21.34-.28.69.43.89.72.33.48.47,1,.3,1.57-.12.37-.72.92-.25,1.17.62-.72,2.36-2.75,2.61-3.05.25-.29-.57-.04-.47-.09-.37.19-.72.24-1.06-.03-.1-.07-1.09-1.08-.99-1.17.43-.36.96-.96,1.52-1.1.86-.21,1.58,1.52,1.71,2.13.12.58.1,1.19-.08,1.75-.12.39-.49.7.02.93.71-.97,1.42-1.95,2.13-2.92-.15,0-.28-.02-.4-.1-.13-.09.14.07,0,0Z"/>
        <path class="st1" d="M38.31,56.65c2.21-1.86,2.48-5.05.77-7.34-1.87-2.49-5.37-3.1-7.8-1.05-2.2,1.85-2.49,5.05-.76,7.32,1.99,2.62,5.2,2.92,7.79,1.07,1.16-.97-.1.07,0,0ZM37.85,51.89c-.65,1.51-2.2,3.06-3.73,3.67-1.82.71-3.1-.83-2.36-2.55.65-1.52,2.2-3.06,3.74-3.67,1.85-.74,3.07.85,2.36,2.55-.38.89.07-.17,0,0Z"/>
        <path class="st1" d="M31.87,42.04c.47.06.93.55,1.27.04-.74-.88-1.48-1.76-2.23-2.64-.59.27.05.55-.19.97-.24.43-2.56.78-3.18.89.22-.64.9-2.62,1.16-2.84.54-.44.88.43,1.28-.14-.91-1.08-1.83-2.17-2.74-3.25-.31-.37-.56-1.03-.98-.68.04-.03,0,1.47-.09,1.73-.09.24-.94,3.64-1.93,4.47-.49.41-2.24,1.93-2.7,2.1-.54.19-.83-.6-1.22-.04.83.99,1.66,1.97,2.49,2.96.12.15.6.86.77.89.52.09.06-.89.11-1.09.15-.43,2.5-2.72,3.5-2.86,1.46-.2,3.2-.7,4.68-.52.34.04-.35-.04,0,0Z"/>
      </g>
      <path class="st5" d="M25.61,22.87c-4.04-.17-2.35-3.95.39-4.81,2.61-.81,8.09,1.72,9.84,3.4-2.78.85-6.39.73-9.45.87-.23-3.12-.96-2.03-.79.54h0Z"/>
      <path class="st5" d="M26.62,27.72c-2.04-1.58-1.4-5.27,1.76-4.15,4.01,2.08-.86,3.24-1.76,4.15,0,0,.04-.04,0,0Z"/>
      <path class="st5" d="M35.11,35.42c-8.62-.07-2.79-13.32.14-12.52,3.37,1.07,3,12.62-.14,12.52h0Z"/>
      <path class="st5" d="M41.22,31.09c-.84,2.5-2.36,2.97-2.19-.07.19-3.5,2.48-2.66,4.93-4,2.04-1.12,3.14-5.21,6.64-2.77,1.56,1.09,3.35.18,3.85,1.83-.03-.08-4.54,10.31-2.03,10.31-4.96,0-2.77-5.92-.87-9.9-1.85.88-4.84,6.69-2.38,7.64-1.28,1.69-5.19,3.94-7.23,2.3-1.55-1.25-.69-3.33-.71-5.34h0Z"/>
      <path class="st5" d="M45.32,40.7c-3.49,1.05-8.12-1.21-2.51-2.34,3.48-.7,7.19.78,2.51,2.34.14-.04-.13.04,0,0Z"/>
      <path class="st5" d="M49.69,40.56c-.74-1.66.56-3.64,2.68-2.2,1.85,1.25-.85,3.11-2.68,2.2h0Z"/>
      <path class="st5" d="M46.74,45.22c-2.41-.75-10.54-.56-5.22-2.76,1.64-.68,10.15.1,5.22,2.76h0Z"/>
      <path class="st5" d="M49.96,44.87c0-.96-.51-2.68,1.35-1.95,2.23.88-1.35,2.65-1.35,1.95,0,0,0-.17,0,0Z"/>
      <path class="st5" d="M57.18,48.54c-1.44-1.23-2.89-1.29-4.23,0-1.79-3.29-8.32-2.19-11.37-2.65,1.64,4.03,14.86,4.78,15.59,2.65h0Z"/>
      <path class="st5" d="M55.28,50.96c-3.15-.15-6.67-.56-9.65.08,1.86.47,6.4,1.79,2.17,2.92,1.52,2.17,3.97,2.03,5.58.13-.65-.32-1.01-.72-1.55-1.06,1.67-.3,3.23-1.27,3.44-2.07h0Z"/>
      <path class="st5" d="M58.87,47.08c-5.29-3.11-3.95-5.43.35-7.59,2.25-1.13,7.32-5.21,9.45-3.85-3.27,3.81-6.54,7.62-9.8,11.44h0Z"/>
      <path class="st2" d="M55.11,39.81c-4.48-4.6,6.69-4.18,8.49-5.8,1.31.44,10.77-8.28,13.07-7.74-1.66,1.94-5.22,8.14-7.77,8.14-1.96,0-3.95-.29-5.47,1.11-2.22,2.05-5.91,3.09-8.31,4.29h0Z"/>
      <path class="st0" d="M56.57,34.18c-2.45,1.32-4.77-3.91-.54-3.4,2.81.34,5.66-.24,8.35.23-1.93,2.29-4.71,3.55-7.81,3.17h0Z"/>
      <g>
        <path class="st1" d="M69.21,52.47c.19.65.3,1.33.21,2.01-.11.87-.98,2.92-2.17,2.34-1.17-.57-2.19-1.73-3.19-2.55.8-.94,1.51-1.75,2.85-1.29.37.12.69-.04.3-.26-.4-.23-3.11-1.96-3.26-1.8-.27.31.53.87.22,1.47-.23.45-.61.83-.93,1.22-.72-.61-1.92-1.25-1.06-2.26.54-.66,1.25-1.17,2.1-1.34.57-.11,1.84.39,2.01-.22-1.09-.52-2.17-1.04-3.26-1.57.18.8-3.35,4.52-4.13,5.46-.11.14-.66.61-.66.8,0,.43.62.1.66.08.49-.18,6.82,5.11,6.97,5.47.1.28-.22.57-.03.73-.01,0,.23.22.25.18.39-.47,4.52-5.98,5.37-6.22-.79-1.21-1.59-2.43-2.37-3.65-.59.26-.02.95.11,1.39Z"/>
        <path class="st1" d="M63.04,59.17c-2.08-1.34-5.6,1.28-6.12,1.53-1.04.49-1.79-.54-1.25-1.5.47-.83,1.39-1.23,2.31-1.29.28-.02,1.35.2,1.46.03.13-.2.23-.22.04-.35-.86-.58-1.71-1.16-2.57-1.73-.18,1.06-1.38,1.73-2.08,2.44-.82.85-1.52,1.93-1.52,3.16,0,1.13.68,2.14,1.68,2.66,1.14.59,2.32.12,3.32-.51.63-.39,1.25-.86,1.92-1.17,1-.47,2.3-.06,1.95,1.27-.28,1.07-1.35,2.06-2.41,2.34-.62.16-1.27.11-1.87-.09-.43-.14-.99-.73-1.23-.11,1.16.85,2.32,1.69,3.48,2.54.1-.76.52-1.09,1.09-1.56.74-.65,1.44-1.32,1.99-2.13,1.16-1.69,1.54-4.06-.21-5.51Z"/>
        <path class="st1" d="M63.04,59.17c.92.6-.59-.49,0,0h0Z"/>
        <path class="st1" d="M92.28,21.85s0,0,0,0h0Z"/>
        <path class="st1" d="M99.74,19.64c-.73.73-8.42-2.34-8.98-2.76-.29-.12-.3-1.32-.71-.83-.4.49-.81.98-1.22,1.46-.42.51-.84,1.01-1.26,1.51-.26.31-.54.46-.04.72.84-.42,5.42,7.35,5.01,8.46-.72.38-6.92-5.06-7.08-5.42-.05-.15.27-1.02-.21-.94-.23.04-.74.9-.89,1.07-.3.36-.59.71-.89,1.07.33.48.52-.02.96.04.38.08,1.84,1.33,2.24,1.66-.72.03-2.68.13-2.93.11-.9.11-.42-.66-1.01-.93-.76.92-1.52,1.84-2.28,2.76-.44.54-.88,1.07-1.33,1.61-.05.06-.05.03.05.11.33.27.1.17.57,0,.51-.18,6.56,4.93,6.78,5.19.38.45-.15.98.41,1.22.6-.73,1.2-1.46,1.8-2.18.09-.11.14-.1.02-.2-.43-.35-.48.21-1,.15-.53-.09-4.39-3.37-5.89-4.61,1.82-.07,7.29-.27,8.2-.3.3-.01,1.14.9,1.07,1.22-.08.38-.46.56.05.79.48-.58.99-1.15,1.46-1.73h0l.23-.28c.08-.05.15-.14.21-.26l.17-.21c.42-.48,1.8-2.01,1.63-2.15-.46-.4-.68.47-1.3-.05-.35-.25-1.22-1.79-1.44-2.16-.26-.45.61-.9.96-1.12.78-.48,3.25-1.18,3.48.35.04.26-.27.55-.08.7.04.04.2.24.27.16.16-.2,2.36-2.84,3.3-3.97-.1-.08-.21-.22-.32-.27ZM92.36,21.8c.08-.05.15-.1,0,0-.05.03-.07.05-.08.05.01,0,.05-.03.08-.05-.34.22-.67.47-.96.76-.52-.9-1.04-1.79-1.56-2.69,1.18.49,2.35.98,3.52,1.48-.35.1-.69.25-1,.45Z"/>
        <path class="st1" d="M82.62,33.01c-2.37-1.98-5.63-1.4-7.59.83-1.9,2.31-1.71,5.66.6,7.62,2.34,1.93,5.67,1.44,7.57-.85,1.9-2.3,1.77-5.67-.59-7.6ZM82.33,39.63s-.02.03-.03.03c-1.23,1.29-3.36.1-4.51-.73-1.15-.83-3.11-2.57-1.86-4.1,1.06-1.29,3.12-.23,4.19.48,1.2.8,3.41,2.6,2.28,4.22.07-.09.13-.15-.08.11Z"/>
        <path class="st1" d="M82.62,33.01c1.17.96-.25-.21,0,0h0Z"/>
        <path class="st1" d="M82.31,39.65s.02-.02.03-.03c.03-.04.06-.07.08-.11-.05.06-.11.14-.11.14Z"/>
        <path class="st1" d="M76.02,42.14c.11.09.27.22-.06-.06-2.83-2.13-6.19-1.5-8.4,1.16-.99,1.19-1.98,2.38-2.96,3.57.35.51.76-.12,1.27.18.44.25,6.24,5.1,6.34,5.37.16.46-.25.55.14.88.17.14,4.54-5.25,4.93-6.19.69-1.75.14-3.68-1.26-4.89ZM74.71,48.89c-.24.3-.04.05-.66.65-.31.29-6.44-4.68-6.19-4.94.83-.92,2.57-1.56,3.58-1.3,2.19.56,5.21,3.26,3.28,5.59Z"/>
      </g>
    </g>
  </g>
</svg>