<?xml version="1.0" encoding="UTF-8"?>
<svg id="Layer_1" xmlns="http://www.w3.org/2000/svg" version="1.1" viewBox="0 0 18 18">
  <!-- Generator: Adobe Illustrator 29.2.1, SVG Export Plug-In . SVG Version: 2.1.0 Build 116)  -->
  <defs>
    <style>
      .st0 {
        fill: #010101;
      }
    </style>
  </defs>
  <g id="Page-1">
    <g id="Icons-Communication">
      <g id="phone">
        <path id="Shape" class="st0" d="M3.6,7.8c1.4,2.8,3.8,5.1,6.6,6.6l2.2-2.2c.3-.3.7-.4,1-.2,1.1.4,2.3.6,3.6.6.6,0,1,.4,1,1v3.4c0,.6-.4,1-1,1C7.6,18,0,10.4,0,1,0,.4.4,0,1,0h3.5c.6,0,1,.4,1,1,0,1.2.2,2.4.6,3.6.1.3,0,.7-.2,1l-2.3,2.2h0Z"/>
      </g>
    </g>
  </g>
</svg>