<?xml version="1.0" encoding="utf-8"?><svg xmlns="http://www.w3.org/2000/svg" xmlns:xlink="http://www.w3.org/1999/xlink"><symbol id="android-logo" viewBox="0 0 42.1 47" style="enable-background:new 0 0 42.1 47;" xml:space="preserve" xmlns="http://www.w3.org/2000/svg">
<style type="text/css">.ast0{fill:#A4C639;}</style>
<path class="ast0" d="M34.1,14H7.9c0,0.1,0,0.2,0,0.3v18.8c0,1.9,1.5,3.5,3.3,3.6v7.4c0,1.6,1.3,2.9,2.9,2.9s2.9-1.3,2.9-2.9v-7.4  h8.1v7.4c0,1.6,1.3,2.9,2.9,2.9s2.9-1.3,2.9-2.9v-7.4c1.9-0.1,3.3-1.7,3.3-3.6V14.3C34.2,14.2,34.2,14.1,34.1,14L34.1,14z"/>
<path id="ac-4-9-2-9-2-9" class="ast0" d="M2.9,15.7L2.9,15.7c1.6,0,2.9,1.3,2.9,2.9v12.4c0,1.6-1.3,2.9-2.9,2.9l0,0  c-1.6,0-2.9-1.3-2.9-2.9V18.6C0,17,1.3,15.7,2.9,15.7z"/>
<path id="ac-4-1-7-3-8-4" class="ast0" d="M39.2,15.7L39.2,15.7c1.6,0,2.9,1.3,2.9,2.9v12.4c0,1.6-1.3,2.9-2.9,2.9l0,0  c-1.6,0-2.9-1.3-2.9-2.9V18.6C36.3,17,37.6,15.7,39.2,15.7z"/>
<path class="ast0" d="M8,12h26c0-2.8-1.2-5.3-3.2-7.3l2.4-4.2c0.1-0.2,0-0.3-0.1-0.4c-0.2-0.1-0.3,0-0.4,0.1l-2.4,4.1  c-2-1.8-6.2-3.4-9.4-3.4l0,0c-3,0-7.3,1.5-9.4,3.4L9.3,0.2C9.2,0,9,0,8.9,0C8.7,0.1,8.7,0.3,8.8,0.4l2.4,4.2C9.3,6.6,8.1,9.2,8,12  L8,12z M25.3,6.8c0-0.8,0.7-1.5,1.5-1.5s1.5,0.7,1.5,1.4l0,0c0,0.8-0.7,1.5-1.5,1.5C26,8.3,25.3,7.6,25.3,6.8L25.3,6.8L25.3,6.8z   M14.2,6.8c0-0.8,0.7-1.5,1.5-1.5c0.8,0,1.5,0.7,1.5,1.4l0,0c0,0.8-0.7,1.5-1.5,1.5S14.2,7.6,14.2,6.8L14.2,6.8L14.2,6.8z"/>
</symbol><symbol id="burger-menu" viewBox="0 0 49.9 24" style="enable-background:new 0 0 49.9 24;" xml:space="preserve" xmlns="http://www.w3.org/2000/svg">

<g id="bmiu">
	<g id="beditor_list_view_hambuger_menu_glyph">
		<g>
			<path id="bpath-1" fill="currentColor" d="M1.1,0C0.5,0,0,0.4,0,1v2c0,0.6,0.5,1,1.1,1h47.7c0.6,0,1.1-0.4,1.1-1V1c0-0.6-0.5-1-1.1-1H1.1z      M1.1,10C0.5,10,0,10.4,0,11v2c0,0.6,0.5,1,1.1,1h47.7c0.6,0,1.1-0.4,1.1-1v-2c0-0.6-0.5-1-1.1-1H1.1z M1.1,20     C0.5,20,0,20.4,0,21v2c0,0.6,0.5,1,1.1,1h47.7c0.6,0,1.1-0.4,1.1-1v-2c0-0.6-0.5-1-1.1-1H1.1z"/>
		</g>
		<g>
			<path id="bpath-1_1_" fill="currentColor" d="M1.1,0C0.5,0,0,0.4,0,1v2c0,0.6,0.5,1,1.1,1h47.7c0.6,0,1.1-0.4,1.1-1V1c0-0.6-0.5-1-1.1-1     H1.1z M1.1,10C0.5,10,0,10.4,0,11v2c0,0.6,0.5,1,1.1,1h47.7c0.6,0,1.1-0.4,1.1-1v-2c0-0.6-0.5-1-1.1-1H1.1z M1.1,20     C0.5,20,0,20.4,0,21v2c0,0.6,0.5,1,1.1,1h47.7c0.6,0,1.1-0.4,1.1-1v-2c0-0.6-0.5-1-1.1-1H1.1z"/>
		</g>
	</g>
</g>
</symbol><symbol id="contrast" viewBox="-26.7 0 42.7 42.7" style="enable-background:new -26.7 0 42.7 42.7;" xml:space="preserve" xmlns="http://www.w3.org/2000/svg">
<style type="text/css">.cst0{fill:#b4b4b4;}</style>
<g>
	<path class="cst0" d="M-5.4,9.4c6.6,0,12,5.4,12,12s-5.4,12-12,12s-12-5.4-12-12S-12,9.4-5.4,9.4 M-5.4,5.4c-8.8,0-16,7.1-16,16   c0,8.8,7.1,16,16,16c8.8,0,16-7.1,16-16C10.6,12.5,3.5,5.4-5.4,5.4L-5.4,5.4z"/>
</g>
<path d="M-5.4,29.7c4.7,0,8.5-3.8,8.5-8.5c0-4.7-3.8-8.5-8.5-8.5"/>
</symbol><symbol id="crop" viewBox="0 0 48 48" style="enable-background:new 0 0 48 48;" xml:space="preserve" xmlns="http://www.w3.org/2000/svg">
<style type="text/css">.dst0{fill:none;}</style>
<path class="dst0" d="M0,0h48v48H0V0z"/>
<path d="M34,30h4V14c0-2.2-1.8-4-4-4H18v4h16V30z M14,34V2h-4v8H2v4h8v20c0,2.2,1.8,4,4,4h20v8h4v-8h8v-4H14z"/>
</symbol><symbol id="diagram-fill" viewBox="22.5 69 253 253" style="enable-background:new 22.5 69 253 253;" xml:space="preserve" xmlns="http://www.w3.org/2000/svg">
<path fill="currentColor" d="M149,69C79.1,69,22.5,125.7,22.5,195.5C22.5,265.4,79.1,322,149,322s126.5-56.6,126.5-126.5  C275.5,125.7,218.9,69,149,69z M149,306.3c-60.8,0-110.2-49.3-110.2-110.2c0-60.8,49.3-110.2,110.2-110.2  c60.8,0,110.2,49.3,110.2,110.2C259.2,256.9,209.8,306.3,149,306.3z"/>
</symbol><symbol id="facebook" viewBox="0 0 8.7 18.9" style="enable-background:new 0 0 8.7 18.9;" xml:space="preserve" xmlns="http://www.w3.org/2000/svg">
<path d="M6.3,3.4c0.8,0,1.6,0,2.4,0c0-1.1,0-2.2,0-3.4c-1,0-1.9,0-2.9,0C2.7,0.2,1.5,2.4,1.9,6.1H0v3.5h2c0,3.1,0,6.2,0,9.3  c1.3,0,2.6,0,3.8,0c0-3.1,0-6.2,0-9.3h2.9V6.1H5.8C5.8,5.1,5.8,3.7,6.3,3.4z"/>
</symbol><symbol id="fill" viewBox="0 0 48 48" style="enable-background:new 0 0 48 48;" xml:space="preserve" xmlns="http://www.w3.org/2000/svg">
<style type="text/css">.gst0{fill:none;}</style>
<path class="gst0" d="M0,0h48v48H0V0z"/>
<path d="M33.1,17.9L15.2,0l-2.8,2.8l4.8,4.8L6.9,17.9c-1.2,1.2-1.2,3.1,0,4.2l11,11c0.6,0.6,1.4,0.9,2.1,0.9s1.5-0.3,2.1-0.9l11-11  C34.3,21,34.3,19,33.1,17.9z M10.4,20l9.6-9.6l9.6,9.6H10.4z M38,23c0,0-4,4.3-4,7c0,2.2,1.8,4,4,4s4-1.8,4-4C42,27.3,38,23,38,23z"/>
<rect y="40" width="48" height="3"/>
</symbol><symbol id="footer-logo" viewBox="0 0 146.3 40.4" style="enable-background:new 0 0 146.3 40.4;" xml:space="preserve" xmlns="http://www.w3.org/2000/svg">
<style type="text/css">.hst0{fill:#283645;}.hst1{fill:#FFFFFF;}.hst2{fill:#D22856;}</style>
<g>
	<path class="hst0" d="M71.9,18.7c0-0.7,0.6-1.3,1.3-1.3h7.2c5.1,0,8.4,2.7,8.4,7.1v0.1c0,4.9-4.1,7.4-8.9,7.4h-5.5v6.8   c0,0.7-0.6,1.3-1.3,1.3c-0.7,0-1.3-0.6-1.3-1.3L71.9,18.7L71.9,18.7z M80,29.6c3.7,0,6.2-2,6.2-5v-0.1c0-3.2-2.4-4.9-6.1-4.9h-5.7   v9.9L80,29.6L80,29.6z"/>
	<path class="hst0" d="M93.6,18.5c0-0.7,0.6-1.3,1.3-1.3c0.7,0,1.3,0.6,1.3,1.3v20.3c0,0.7-0.6,1.3-1.3,1.3c-0.7,0-1.3-0.6-1.3-1.3   V18.5z"/>
	<path class="hst0" d="M102.7,18.5c0-0.7,0.6-1.3,1.3-1.3h0.4c0.6,0,0.9,0.3,1.3,0.7l13.7,17.4v-17c0-0.7,0.5-1.3,1.3-1.3   c0.7,0,1.2,0.6,1.2,1.3v20.3c0,0.7-0.5,1.2-1.2,1.2h-0.1c-0.5,0-0.9-0.3-1.3-0.8l-14-17.9v17.4c0,0.7-0.5,1.3-1.3,1.3   c-0.7,0-1.2-0.6-1.2-1.3L102.7,18.5L102.7,18.5z"/>
	<path class="hst0" d="M128.2,18.5c0-0.7,0.6-1.3,1.3-1.3c0.7,0,1.3,0.6,1.3,1.3v12.3l12.8-13.2c0.3-0.3,0.6-0.5,1-0.5   c0.7,0,1.2,0.6,1.2,1.3c0,0.4-0.2,0.6-0.4,0.9l-8,7.9l8.6,10.6c0.2,0.3,0.4,0.5,0.4,0.9c0,0.7-0.6,1.3-1.3,1.3   c-0.5,0-0.8-0.3-1-0.6L135.6,29l-4.9,4.9v4.9c0,0.7-0.6,1.3-1.3,1.3c-0.7,0-1.3-0.6-1.3-1.3L128.2,18.5L128.2,18.5z"/>
</g>
<path class="hst1" d="M60.5,28.3"/>
<path class="hst2" d="M60.5,28c0,0-5.2-21.4-5.2-21.4C54.9,4.3,52.7,0,46.7,0c-0.8,0-1.5,0.7-1.5,1.5S45.9,3,46.7,3  c4.9,0,5.6,3.7,5.6,4.1l4.8,19.7H55c-0.7-5.9-5.8-10.5-11.9-10.5s-11.2,4.6-11.9,10.5h-1.8c-0.7-5.9-5.8-10.5-11.9-10.5  S6.2,20.9,5.5,26.8H3.4L8.2,7.1C8.3,6.7,9,3,13.8,3c0.8,0,1.5-0.7,1.5-1.5S14.7,0,13.8,0c-6,0-8.2,4.3-8.6,6.7  c0,0-5.2,21.4-5.2,21.4c-0.3,1.1,0.5,1.8,1.4,1.8c0,0,0,0,0,0h4c0.7,5.9,5.8,10.5,11.9,10.5s11.2-4.6,11.9-10.5h1.8  c0.7,5.9,5.8,10.5,11.9,10.5S54.3,35.8,55,29.8h4c0,0,0,0,0,0C59.9,29.8,60.7,29.1,60.5,28z M26.3,29.8c-0.7,4.3-4.4,7.5-8.9,7.5  s-8.2-3.3-8.9-7.5c-0.1-0.5-0.1-1-0.1-1.5c0-0.5,0.1-1,0.1-1.5c0.7-4.3,4.4-7.5,8.9-7.5s8.2,3.3,8.9,7.5c0.1,0.5,0.1,1,0.1,1.5  C26.5,28.9,26.4,29.4,26.3,29.8z M52,29.8c-0.7,4.3-4.4,7.5-8.9,7.5c-4.5,0-8.2-3.3-8.9-7.5c-0.1-0.5-0.1-1-0.1-1.5  c0-0.5,0.1-1,0.1-1.5c0.7-4.3,4.4-7.5,8.9-7.5c4.5,0,8.2,3.3,8.9,7.5c0.1,0.5,0.1,1,0.1,1.5C52.1,28.9,52.1,29.4,52,29.8z"/>
</symbol><symbol id="heart" viewBox="521.9 473.1 12.5 12" style="enable-background:new 521.9 473.1 12.5 12;" xml:space="preserve" xmlns="http://www.w3.org/2000/svg">
<g>
	<path d="M528.2,485.1c-0.2,0-0.4-0.1-0.6-0.2c-3.8-4.3-4.6-5.3-4.9-5.6l0,0c-0.5-0.7-0.8-1.5-0.8-2.4c0-2.1,1.7-3.8,3.8-3.8   c0.9,0,1.8,0.3,2.5,0.9c0.7-0.6,1.6-0.9,2.5-0.9c2.1,0,3.8,1.7,3.8,3.8c0,0.9-0.3,1.8-0.9,2.4l-4.9,5.6   C528.6,485,528.4,485.1,528.2,485.1L528.2,485.1z M523.9,478.3c0.2,0.3,2.5,2.8,4.2,4.9l4.3-4.9c0.3-0.4,0.5-0.9,0.5-1.4   c0-1.3-1-2.3-2.3-2.3c-0.7,0-1.4,0.3-1.9,0.9c-0.1,0.2-0.4,0.3-0.6,0.3c-0.2,0-0.4-0.1-0.6-0.3c-0.4-0.6-1.1-0.9-1.9-0.9   c-1.3,0-2.3,1-2.3,2.3C523.4,477.5,523.7,478,523.9,478.3C523.9,478.3,523.9,478.3,523.9,478.3z"/>
</g>
</symbol><symbol id="htmlacademy" viewBox="0 0 162.3 205.6" style="enable-background:new 0 0 162.3 205.6;" xml:space="preserve" xmlns="http://www.w3.org/2000/svg">
<style type="text/css">.jst0{stroke:#231F20;stroke-miterlimit:10;}</style>
<path class="jst0" d="M81.8,8L81,7.9l-76.7,8v140.6L81,202.1l76.7-45.6V15.9L81.8,8z M147.7,150.8L81,190.4l-66.7-39.7V93.2  l66.4,39.5l0.1,7.2l-45.5-27.1l-0.1,7l45.7,27.5l0.1,7.3l-45.7-27.2l-0.1,7L81,161.7l46.2-27.6v-7l-0.1,0v-2.4v-2.9v-17.5l20.6-12.3  V150.8z M147.6,84.7l-18.2,10.7l-8.4,5L80.8,76.5l-0.1,7l34.3,20.4l-0.3,0.2l-0.7,0.4l-4.9,2.9L80.8,90.5l-0.1,7l22.4,13.3l-5.3,3.5  l-0.1,0.1l-16.9-10l-0.1,7l11.1,6.5l-11.3,6.8l-66-39.3l66.1-39.8v0L147.6,84.7z M147.7,77.7l-67-39.5v0l0,0l0,0v0L14.3,77.7V25  L81,18l66.7,7V77.7z"/>
</symbol><symbol id="left-arrow" viewBox="0 0 21.5 41.4" style="enable-background:new 0 0 21.5 41.4;" xml:space="preserve" xmlns="http://www.w3.org/2000/svg">
<path d="M2,20.7L21.3,1.4c0.3-0.3,0.3-0.9,0-1.2c-0.3-0.3-0.9-0.3-1.2,0L0.2,20.1c-0.3,0.3-0.3,0.9,0,1.2l19.8,19.8  c0.2,0.2,0.4,0.2,0.6,0.2c0.2,0,0.4-0.1,0.6-0.2c0.3-0.3,0.3-0.9,0-1.2L2,20.7z"/>
</symbol><symbol id="logo-link" viewBox="0 0 74.4 22.9" style="enable-background:new 0 0 74.4 22.9;" xml:space="preserve" xmlns="http://www.w3.org/2000/svg">

<path class="lst0" fill="currentColor" d="M0,1.5c0-0.7,0.6-1.3,1.3-1.3h7.2c5.1,0,8.4,2.7,8.4,7.2v0.1c0,4.9-4.1,7.4-8.9,7.4H2.5v6.8  c0,0.7-0.6,1.3-1.3,1.3c-0.7,0-1.3-0.6-1.3-1.3L0,1.5L0,1.5z M8.1,12.4c3.7,0,6.2-2,6.2-5V7.4c0-3.2-2.4-4.9-6.1-4.9H2.5v9.9  C2.5,12.4,8.1,12.4,8.1,12.4z"/>
<path class="lst0" fill="currentColor" d="M21.7,1.3C21.7,0.6,22.3,0,23,0c0.7,0,1.3,0.6,1.3,1.3v20.3c0,0.7-0.6,1.3-1.3,1.3s-1.2-0.6-1.2-1.3V1.3  L21.7,1.3z"/>
<path class="lst0" fill="currentColor" d="M30.9,1.3c0-0.7,0.6-1.3,1.3-1.3h0.3c0.6,0,0.9,0.3,1.3,0.7l13.7,17.5v-17C47.5,0.6,48,0,48.7,0  s1.2,0.6,1.2,1.3v20.4c0,0.7-0.5,1.2-1.2,1.2h-0.1c-0.5,0-0.9-0.3-1.3-0.8l-14-17.9v17.5c0,0.7-0.5,1.3-1.3,1.3s-1.2-0.6-1.2-1.3  L30.9,1.3L30.9,1.3z"/>
<path class="lst0" fill="currentColor" d="M56.3,1.3c0-0.7,0.6-1.3,1.3-1.3s1.3,0.6,1.3,1.3v12.3L71.7,0.4C72,0.2,72.3,0,72.7,0c0.7,0,1.2,0.6,1.2,1.3  c0,0.4-0.2,0.6-0.4,0.9l-8,7.9l8.6,10.6c0.2,0.3,0.3,0.5,0.3,0.9c0,0.7-0.6,1.3-1.3,1.3c-0.5,0-0.8-0.3-1-0.6l-8.4-10.5l-4.9,4.9  v4.9c0,0.7-0.6,1.3-1.3,1.3s-1.3-0.6-1.3-1.3L56.3,1.3L56.3,1.3L56.3,1.3z"/>
</symbol><symbol id="mac" viewBox="0 0 46.2 56.8" style="enable-background:new 0 0 46.2 56.8;" xml:space="preserve" xmlns="http://www.w3.org/2000/svg">
<style type="text/css">.mst0{fill:#FFFFFF;}</style>
<path class="mst0" d="M38.6,30.1c0.1,8.6,7.5,11.4,7.6,11.5c-0.1,0.2-1.2,4.1-3.9,8.1c-2.4,3.5-4.8,6.9-8.7,7c-3.8,0.1-5-2.2-9.4-2.2  s-5.7,2.2-9.3,2.3c-3.7,0.1-6.6-3.7-9-7.2c-4.9-7-8.6-19.9-3.6-28.6c2.5-4.3,6.9-7,11.7-7.1c3.7-0.1,7.1,2.5,9.4,2.5  s6.4-3.1,10.9-2.6c1.8,0.1,7,0.8,10.4,5.6C44.5,19.5,38.5,23,38.6,30.1 M31.5,9.1c2-2.4,3.3-5.7,3-9.1c-2.9,0.1-6.3,1.9-8.4,4.3  c-1.8,2.1-3.4,5.5-3,8.8C26.2,13.3,29.5,11.5,31.5,9.1"/>
</symbol><symbol id="mail" viewBox="0 0 18 14" style="enable-background:new 0 0 18 14;" xml:space="preserve" xmlns="http://www.w3.org/2000/svg">
<style type="text/css">.nst0{fill:#FFFFFF;}</style>
<g>
	<g>
		<g>
			<path class="nst0" d="M14.9,1.8c1.2-1,0.9-1.8-0.7-1.8H3.7C2.2,0,1.9,0.8,3.1,1.8l3.7,3.1c1.2,1,3.2,1,4.4,0L14.9,1.8z"/>
		</g>
		<g>
			<path class="nst0" d="M11.9,7c-1.2,1-2.2,1.8-2.2,1.8c0,0,0,0,0,0C9.6,8.9,9.5,9,9.4,9c0,0-0.1,0-0.1,0C9.2,9.1,9.1,9.1,9,9.1     c0,0,0,0,0,0c0,0,0,0,0,0c0,0,0,0,0,0c0,0,0,0,0,0c-0.1,0-0.2,0-0.3-0.1c0,0-0.1,0-0.1,0C8.5,9,8.4,8.9,8.3,8.9c0,0,0,0,0,0     c0,0-1-0.8-2.2-1.8L2.2,3.8C1,2.8,0,3.3,0,4.8v6.3C0,12.7,1.3,14,2.8,14h12.3c1.6,0,2.8-1.3,2.8-2.8V4.8c0-1.6-1-2-2.2-1L11.9,7z     "/>
		</g>
	</g>
</g>
</symbol><symbol id="map-marker" viewBox="0 0 36 36" style="enable-background:new 0 0 36 36;" xml:space="preserve" xmlns="http://www.w3.org/2000/svg">
<style type="text/css">.ost0{fill:#FFFFFF;}.ost1{fill:#D22856;}</style>
<path class="ost0" d="M18,0c9.9,0,18,8.1,18,18s-8,18-18,18s-18-8-18-18S8.1,0,18,0z"/>
<path class="ost1" d="M18,10.1c4.3,0,7.9,3.5,7.9,7.9s-3.5,7.9-7.9,7.9s-7.9-3.5-7.9-7.9S13.6,10.1,18,10.1z"/>
</symbol><symbol id="microsoft-logo" viewBox="0 0 43.9 42" style="enable-background:new 0 0 43.9 42;" xml:space="preserve" xmlns="http://www.w3.org/2000/svg">
<style type="text/css">.pst0{fill:#F05423;}.pst1{fill:#84C441;}.pst2{fill:#2DABE2;}.pst3{fill:#F9BC15;}</style>
<path id="ppath5058" class="pst0" d="M20.9,20H0V0h20.9V20z"/>
<path id="ppath5060" class="pst1" d="M43.9,20H23V0h20.9V20z"/>
<path id="ppath5062" class="pst2" d="M20.9,42H0V22h20.9V42z"/>
<path id="ppath5064" class="pst3" d="M43.9,42H23V22h20.9V42z"/>
</symbol><symbol id="no" viewBox="0 0 26.8 26.8" style="enable-background:new 0 0 26.8 26.8;" xml:space="preserve" xmlns="http://www.w3.org/2000/svg">
<path d="M15.5,13.4L26.3,2.6c0.6-0.6,0.6-1.5,0-2.1c-0.6-0.6-1.5-0.6-2.1,0L13.4,11.2L2.6,0.4C2-0.2,1-0.2,0.4,0.4  C-0.1,1-0.1,2,0.4,2.6l10.8,10.8L0.4,24.2c-0.6,0.6-0.6,1.5,0,2.1c0.3,0.3,0.7,0.4,1.1,0.4s0.8-0.1,1.1-0.4l10.8-10.8l10.8,10.8  c0.3,0.3,0.7,0.4,1.1,0.4s0.8-0.1,1.1-0.4c0.6-0.6,0.6-1.5,0-2.1L15.5,13.4L15.5,13.4z"/>
</symbol><symbol id="phone" viewBox="0 0 19.7 19.7" style="enable-background:new 0 0 19.7 19.7;" xml:space="preserve" xmlns="http://www.w3.org/2000/svg">
<style type="text/css">.rst0{fill:#FFFFFF;}</style>
<path class="rst0" d="M9.8,0c-3.5,0-7,0.6-8.3,1.9c-1.1,1-1.4,2.9-1.5,4c0,0,0,0.1,0,0.2c0,0.5,0.4,0.8,0.8,0.8c0.1,0,2-0.2,3.2-0.3  c0,0,0.1,0,0.1,0c0.4,0,0.8-0.4,0.8-0.8l0-1.6c0-0.5,0.4-0.9,0.9-0.9h8c0.5,0,0.9,0.4,0.9,0.9l0,1.6c0,0.4,0.4,0.8,0.8,0.8  c0,0,0.1,0,0.1,0c1.2,0.1,3.2,0.3,3.2,0.3c0.5,0,0.8-0.4,0.8-0.8c0-0.1,0-0.2,0-0.2c-0.1-1.2-0.5-3-1.5-4C16.9,0.6,13.4,0,9.8,0z   M9.8,10.7c-0.9,0-1.6,0.7-1.6,1.6S8.9,14,9.8,14c0.9,0,1.6-0.7,1.6-1.6C11.5,11.4,10.8,10.7,9.8,10.7z M8.6,7V6c0-0.6-0.5-1-1-1  s-1,0.5-1,1v1L1,12.9c-0.4,0.4-0.6,0.9-0.6,1.5V16c0,0.9,0.7,1.6,1.6,1.6h0.4v1c0,0.6,0.5,1,1,1c0.6,0,1-0.5,1-1v-1h10.7v1  c0,0.6,0.5,1,1,1c0.6,0,1-0.5,1-1v-1h0.4c0.9,0,1.6-0.7,1.6-1.6v-1.6c0-0.6-0.2-1.1-0.6-1.5L13.1,7V6c0-0.6-0.5-1-1-1  c-0.6,0-1,0.5-1,1v1H8.6z M9.8,9c1.8,0,3.3,1.5,3.3,3.3c0,1.8-1.5,3.3-3.3,3.3c-1.8,0-3.3-1.5-3.3-3.3C6.6,10.5,8,9,9.8,9z"/>
</symbol><symbol id="quotes" viewBox="0 0 78.7 63.8" style="enable-background:new 0 0 78.7 63.8;" xml:space="preserve" xmlns="http://www.w3.org/2000/svg">
<g>
	<path d="M35,7.1L30.7,0C28.3,1.5,0,12.2,0,39.6c0,7.2,0.3,24.2,18.9,24.2c11.2,0,13.9-10.3,13.9-13.6c0-22-21.4-14.2-21.4-14.2   C11.5,18,31.3,9.2,35,7.1z"/>
</g>
<g>
	<path d="M78.7,7.1L74.4,0C72,1.5,43.7,12.2,43.7,39.6c0,7.2,0.3,24.2,18.9,24.2c11.2,0,13.9-10.3,13.9-13.6   c0-22-21.4-14.2-21.4-14.2C55.2,18,75,9.2,78.7,7.1z"/>
</g>
</symbol><symbol id="right-arrow" viewBox="0 0 21.5 41.4" style="enable-background:new 0 0 21.5 41.4;" xml:space="preserve" xmlns="http://www.w3.org/2000/svg">
<path d="M2,20.7L21.3,1.4c0.3-0.3,0.3-0.9,0-1.2c-0.3-0.3-0.9-0.3-1.2,0L0.2,20.1c-0.3,0.3-0.3,0.9,0,1.2l19.8,19.8  c0.2,0.2,0.4,0.2,0.6,0.2c0.2,0,0.4-0.1,0.6-0.2c0.3-0.3,0.3-0.9,0-1.2L2,20.7z"/>
</symbol><symbol id="timer24" viewBox="0 0 298 345.1" style="enable-background:new 0 0 298 345.1; " xml:space="preserve" xmlns="http://www.w3.org/2000/svg">
<path fill="currentColor" d="M264.6,102.1l5.4-5.4c7.7-7.7,9.1-18.9,3.1-24.9c-6-6-17.2-4.6-24.9,3.1l-5.4,5.4c-21-17-46.6-28.4-74.7-32v-9.6h7.7  c10.9,0,19.8-8.7,19.8-19.4S186.6,0,175.7,0h-53.3c-10.9,0-19.8,8.7-19.8,19.4s8.9,19.4,19.8,19.4h7.7v9.6  C56.7,57.6,0,120.2,0,196.1c0,82.3,66.7,149,149,149c82.3,0,149-66.7,149-149C298,160.4,285.5,127.7,264.6,102.1z M149,306.3  c-60.8,0-110.2-49.3-110.2-110.2c0-60.8,49.3-110.2,110.2-110.2c60.8,0,110.2,49.3,110.2,110.2C259.2,256.9,209.8,306.3,149,306.3z"/>
</symbol><symbol id="triangle-white-footer" viewBox="0 0 595.3 61.9" style="enable-background:new 0 0 595.3 61.9;" xml:space="preserve" xmlns="http://www.w3.org/2000/svg">
<style type="text/css">.vst0{fill:#ffffff;}</style>
<polygon class="vst0" points="297.6,61.9 0,0 595.3,0 "/>
</symbol><symbol id="twitter" viewBox="0 0 17.5 14.7" style="enable-background:new 0 0 17.5 14.7;" xml:space="preserve" xmlns="http://www.w3.org/2000/svg">
<g id="wW6EeEF_1_">
	<g>
		<path d="M11.3,0.2C13-0.3,14.4,0.4,15,1.3c0.7-0.2,1.4-0.5,2.1-0.7c0,0.8-0.5,1.5-0.9,1.7c0.7,0.2,1.3-0.5,1.3-0.5    c-0.2,1-1,1.7-1.6,2c-0.2,6.6-3.3,11-10.4,10.8c-0.5,0,0.1,0-0.5,0c-0.4,0-4.3-0.4-5-1.8c2.3,0.2,4-0.4,4.8-1.1    c-1-0.3-2.8-0.5-3.1-2.9C2.1,8.9,2.3,9,3,8.9C1.8,8.1,0.4,7.4,0.5,5.2c0.3,0.3,1.1,0.5,1.4,0.5c-0.7-0.2-2-3.3-0.9-4.8    c1.9,1.8,3.8,3.5,7.4,3.7C8.5,2.3,9.5,0.8,11.3,0.2z"/>
	</g>
</g>
</symbol><symbol id="yes" viewBox="0 0 30.4 21.7" style="enable-background:new 0 0 30.4 21.7;" xml:space="preserve" xmlns="http://www.w3.org/2000/svg">
<path d="M29.9,0.4c-0.6-0.6-1.5-0.6-2.1,0L10.2,18.1l-7.6-7.6C2,9.8,1,9.8,0.4,10.4c-0.6,0.6-0.6,1.5,0,2.1l8.7,8.7  c0.3,0.3,0.7,0.4,1.1,0.4s0.8-0.1,1.1-0.4L29.9,2.6C30.5,2,30.5,1,29.9,0.4z"/>
</symbol><symbol id="youtube" viewBox="0 0 14.6 14" style="enable-background:new 0 0 14.6 14;" xml:space="preserve" xmlns="http://www.w3.org/2000/svg">
<path d="M1.8,13.8c-1,0.5-1.8,0-1.8-1.1V1.3c0-1.1,0.8-1.6,1.8-1.1l12.1,5.9c1,0.5,1,1.3,0,1.7L1.8,13.8z"/>
</symbol></svg>