<?xml version="1.0" encoding="UTF-8"?><!DOCTYPE svg PUBLIC "-//W3C//DTD SVG 1.1//EN" "http://www.w3.org/Graphics/SVG/1.1/DTD/svg11.dtd"><svg xmlns="http://www.w3.org/2000/svg" xmlns:xlink="http://www.w3.org/1999/xlink"><defs><style>.st1{fill:#fff}.st3{fill:#491213}.st4{fill:#23a9e1}.st5{fill:#dc6243}</style><style>.st0{fill:#fff}.st1{fill:#766458}.st2{fill:#81b3d3}</style></defs><symbol id="calendar"><path d="M19.251 2.025h-2.845V.648c0-.381-.294-.689-.656-.689-.363 0-.656.308-.656.689v1.377h-3.938V.648c0-.381-.294-.689-.655-.689-.363 0-.657.308-.657.689v1.377H5.906V.648c0-.381-.294-.689-.656-.689-.363 0-.657.308-.657.689v1.377H1.75C.784 2.025 0 2.847 0 3.862v16.302C0 21.179.784 22 1.75 22h17.501c.966 0 1.749-.821 1.749-1.836V3.862c0-1.015-.783-1.837-1.749-1.837zm.437 18.139a.448.448 0 0 1-.437.459H1.75a.45.45 0 0 1-.438-.459V3.862a.45.45 0 0 1 .438-.459h2.844v1.378c0 .381.294.689.657.689.362 0 .656-.308.656-.689V3.403h3.938v1.378c0 .381.294.689.657.689.361 0 .655-.308.655-.689V3.403h3.938v1.378c0 .381.293.689.656.689.362 0 .656-.308.656-.689V3.403h2.845c.241 0 .437.206.437.459v16.302z"/><path d="M4.594 8.225h2.625v2.066H4.594zm0 3.443h2.625v2.067H4.594zm0 3.444h2.625v2.066H4.594zm4.594 0h2.625v2.066H9.188zm0-3.444h2.625v2.067H9.188zm0-3.443h2.625v2.066H9.188zm4.593 6.887h2.625v2.066h-2.625zm0-3.444h2.625v2.067h-2.625zm0-3.443h2.625v2.066h-2.625z"/></symbol><symbol id="checkbox-off"><path fill="#FFF" d="M20 2c.542 0 1 .458 1 1v17c0 .542-.458 1-1 1H3c-.542 0-1-.458-1-1V3c0-.542.458-1 1-1h17m0-2H3C1.35 0 0 1.35 0 3v17c0 1.65 1.35 3 3 3h17c1.65 0 3-1.35 3-3V3c0-1.65-1.35-3-3-3z"/></symbol><symbol id="checkbox-on"><path fill="#FFF" d="m7.285 7.486-2.829 2.829 7.783 7.783L26.171 4.166l-2.828-2.829-11.104 11.102z"/><path fill="#FFF" d="M21 20c0 .542-.458 1-1 1H3c-.542 0-1-.458-1-1V3c0-.542.458-1 1-1h16.908L21.493.415A2.96 2.96 0 0 0 20 0H3C1.35 0 0 1.35 0 3v17c0 1.65 1.35 3 3 3h17c1.65 0 3-1.35 3-3v-9.829l-2 2V20z"/></symbol><symbol id="fb-icon"><path fill="#FFF" d="M12 4V0H8a4 4 0 0 0-4 4v4H0v4h4v10h4V12h4V8H8V4h4z"/></symbol><symbol id="filter-button"><path opacity=".3" fill="#ABABAB" d="M10 20C4.477 20 0 15.522 0 10v2c0 5.522 4.477 10 10 10 5.522 0 10-4.478 10-10v-2c0 5.522-4.478 10-10 10z"/><circle fill="#FFF" cx="10" cy="10" r="10"/><circle fill="#ABABAB" cx="10" cy="10" r="2"/></symbol><symbol id="icon-1"><g fill="#81B3D2"><path d="M29.656 65.033h16V41.21h-16v23.823zm2.937-20.899h10.125V62.11H32.593V44.134z"/><path d="m72.771 39.253 2.076-2.068-9.908-9.865V0H51.127v13.567L37.5 0 .152 37.185l2.077 2.068 7.832-7.795v37.618H6.124V72h63.875v-2.924H64.94V31.458l7.831 7.795zM62.002 69.076H12.999V28.534L37.5 4.149l24.502 24.385v40.542zm0-44.682-7.938-7.902V2.924h7.938v21.47z"/><path d="M29.906 27.08c0 4.261 3.47 7.713 7.75 7.713 4.279 0 7.75-3.452 7.75-7.713 0-4.259-3.471-7.713-7.75-7.713-4.281 0-7.75 3.454-7.75 7.713zm7.75-4.945c2.744 0 4.969 2.214 4.969 4.945 0 2.732-2.225 4.948-4.969 4.948-2.746 0-4.97-2.216-4.97-4.948 0-2.731 2.225-4.945 4.97-4.945zM17.061 41.21h3v3.919h-3zm5.938 0h3v3.919h-3zm-5.938 5.972h3v3.919h-3zm5.938 0h3v3.919h-3zm25.999-5.972h3v3.919h-3zm5.938 0h3v3.919h-3zm-5.938 5.972h3v3.919h-3zm5.938 0h3v3.919h-3z"/></g></symbol><symbol id="icon-2"><path fill-rule="evenodd" clip-rule="evenodd" fill="#81B3D2" d="M61.097 22.501H36.312C50.125 15.602 51.229 11.25 50.72 8.816c-1.162-3.963-5.692-7.023-10.002-5.407-5.569 2.089-7.137 10.388-8.644 16.387-1.924-6.07-3.784-13.814-8.136-17.737C22.677.921 20.843-.205 18.175.031c-4.026.356-9.802 5.382-7.458 10.981 2.251 5.378 9.687 8.777 14.578 11.489H2.879A2.882 2.882 0 0 0 0 25.37v11.322a2.882 2.882 0 0 0 2.879 2.869h.274V76h57.841V39.561h.103a2.882 2.882 0 0 0 2.88-2.869V25.37a2.882 2.882 0 0 0-2.88-2.869zM42.413 5.944c2.103-.31 4.982 1.299 5.255 3.209.393 2.756-3.4 5.255-5.086 6.421-2.523 1.744-4.928 2.643-7.287 4.055.884-3.69 2.549-13.011 7.118-13.685zm-22.882 9.968c-2.225-1.485-6.544-4.431-6.44-7.771.112-3.595 5.743-6.57 8.814-3.886 3.856 3.371 5.713 11.105 7.119 16.557-3.249-1.539-6.328-2.788-9.493-4.9zm5.972 57.114H6.136V39.561h19.368v33.465zm0-36.502H3.046V25.538h22.457v10.986zm10.157 0v36.503h-7.174V25.538h7.174v10.986zm22.351 36.502H38.644V39.561h19.367v33.465zm2.92-36.502H38.644V25.538h22.287v10.986z"/></symbol><symbol id="icon-3"><g fill="#81B3D2"><path d="M69.854 46.71H4.051c-2.274 0-4.135 1.94-4.135 4.313v3.504c0 2.372 1.861 4.313 4.135 4.313h.93v1.053c0 5.536 4.341 10.065 9.648 10.065h44.646c5.306 0 9.648-4.529 9.648-10.065V58.84h.93c2.274 0 4.135-1.941 4.135-4.313v-3.504c0-2.373-1.86-4.313-4.134-4.313zm-3.848 13.184c0 3.871-3.019 7.021-6.73 7.021H14.629c-3.711 0-6.731-3.15-6.731-7.021v-1.053h58.107v1.053zm5.065-5.367c0 .688-.558 1.271-1.218 1.271H4.051c-.66 0-1.217-.582-1.217-1.271v-3.504c0-.688.558-1.271 1.217-1.271h65.802c.66 0 1.218.582 1.218 1.271v3.504zM15.634 38.406l5.323 4.059 5.326-4.059 5.328 4.059 5.328-4.059 5.328 4.059 5.329-4.059 5.327 4.059 5.33-4.06 5.336 4.059 6.194-4.712-1.72-2.459-4.474 3.403-5.336-4.057-5.33 4.056-5.327-4.057-5.329 4.057-5.328-4.057-5.328 4.057-5.328-4.057-5.325 4.057-5.323-4.057-5.327 4.057-4.467-3.401-1.721 2.457 6.188 4.714zm-7.656-6.862h60.877c.041-.619.069-1.241.069-1.87 0-.394-.016-.783-.032-1.173C68.227 12.657 54.186 0 36.952 0 19.719 0 5.677 12.657 5.013 28.501c-.017.39-.032.78-.032 1.173 0 .629.028 1.251.07 1.87h2.927zM36.952 3.043c15.591 0 28.35 11.316 29.021 25.458H7.931c.673-14.142 13.43-25.458 29.021-25.458z"/><ellipse cx="36.952" cy="15.26" rx="1.945" ry="2.03"/><ellipse cx="29.172" cy="10.23" rx="1.946" ry="2.03"/><ellipse cx="44.732" cy="10.23" rx="1.946" ry="2.03"/></g></symbol><symbol id="icon-down-dir"><path fill="#231F20" d="M5.5 10 0 0h11"/></symbol><symbol id="icon-up-dir"><path fill="#231F20" d="M5.5 0 0 10h11z"/></symbol><symbol id="like-icon" viewBox="0 0 22 20"><path d="m12.38 3.65-.64 2.93L11.21 9h8.68v2.06L16.99 18h-9V8.03H8l4.37-4.38M2 10v8-8M13.2 0 6.6 6.6c-.4.3-.6.8-.6 1.4v10c0 1.1.9 2 2 2h9c.8 0 1.5-.5 1.8-1.2l3-7.1c.1-.2.1-.5.1-.7V9h.1c0-1.1-.9-2-2-2h-6.3l1-4.6v-.3c0-.4-.2-.8-.4-1.1l-1.1-1ZM4 8H0v12h4V8Zm18 1v.04V9Z" style="fill:#fff"/></symbol><symbol id="logo-htmlacademy" viewBox="0 0 108.08 36.85"><path d="M44.61 26.86a2 2 0 0 0 .55-.1v1.33a3.25 3.25 0 0 1-1.18.21 1.67 1.67 0 0 1-1.67-1 4.84 4.84 0 0 1-3.14 1.08c-1.51 0-2.91-.83-2.91-2.55 0-2.13 2-2.79 3.71-2.79a11.08 11.08 0 0 1 2.17.25v-.3c0-1-.76-1.77-2.19-1.77a7.42 7.42 0 0 0-3 .64v-1.7a10.21 10.21 0 0 1 3.19-.55c2.36 0 3.81 1.12 3.81 3.65v3a.54.54 0 0 0 .49.59h.17Zm-6.44-1.13a1.35 1.35 0 0 0 1.46 1.25h.11a3.39 3.39 0 0 0 2.41-1v-1.42a9.72 9.72 0 0 0-1.81-.21c-1 0-2.16.33-2.16 1.38Zm12.36-6.11a5 5 0 0 1 2.57.64v1.72a4.08 4.08 0 0 0-2.3-.7 2.75 2.75 0 1 0 0 5.49 5 5 0 0 0 2.43-.64v1.71a6.27 6.27 0 0 1-2.76.57A4.21 4.21 0 0 1 46 24.49v-.41a4.32 4.32 0 0 1 4.18-4.46h.38Zm12.17 7.24a2 2 0 0 0 .55-.1v1.33a3.25 3.25 0 0 1-1.18.21 1.67 1.67 0 0 1-1.67-1 4.84 4.84 0 0 1-3.14 1.08c-1.51 0-2.91-.83-2.91-2.55 0-2.13 2-2.79 3.71-2.79a11.08 11.08 0 0 1 2.17.25v-.3c0-1-.76-1.77-2.19-1.77a7.42 7.42 0 0 0-3 .64v-1.7a10.21 10.21 0 0 1 3.19-.55c2.36 0 3.81 1.12 3.81 3.65v3a.54.54 0 0 0 .49.59h.17Zm-6.44-1.13a1.35 1.35 0 0 0 1.47 1.25h.11a3.39 3.39 0 0 0 2.41-1v-1.42a9.72 9.72 0 0 0-1.81-.21c-1.06 0-2.16.33-2.16 1.38ZM73 15.98v12.2h-1.65v-1.32a3.88 3.88 0 0 1-3.19 1.54 4.4 4.4 0 0 1 0-8.78 3.81 3.81 0 0 1 3 1.3v-4.94H73Zm-4.53 5.22a2.76 2.76 0 1 0 0 5.52 2.86 2.86 0 0 0 2.68-1.74v-2a2.91 2.91 0 0 0-2.66-1.73ZM79 19.62c3.31 0 4.46 2.68 3.92 5.09H76.7c.21 1.5 1.67 2.11 3.19 2.11a6.11 6.11 0 0 0 2.64-.59v1.6a7.14 7.14 0 0 1-3 .57c-2.53 0-4.75-1.42-4.75-4.42a4.18 4.18 0 0 1 4-4.39H79Zm.09 1.54a2.28 2.28 0 0 0-2.44 2.1v.06h4.65a2 2 0 0 0-2.17-2.16Zm5.73 7v-8.31h1.65v1a3.81 3.81 0 0 1 2.78-1.27 2.86 2.86 0 0 1 2.64 1.4 4.12 4.12 0 0 1 2.91-1.33 3.06 3.06 0 0 1 3.2 3.33v5.2h-1.9v-5.15a1.59 1.59 0 0 0-1.42-1.75h-.26a2.8 2.8 0 0 0-2.07 1.12v5.78h-1.9v-5.15A1.59 1.59 0 0 0 89 21.29h-.2a3 3 0 0 0-2.21 1.29v5.63h-1.73Zm21.31-8.33h1.9l-3.91 9.46c-.9 2.17-2.09 2.86-3.35 2.86a4.76 4.76 0 0 1-1.1-.14v-1.57a2.86 2.86 0 0 0 .85.12c.9 0 1.58-.64 2.07-1.9l.17-.42-4-8.4h2l2.86 6.29ZM38.73 1.44V6.2a3.81 3.81 0 0 1 2.7-1.14 3.25 3.25 0 0 1 3.44 3.4v5.15H43V8.7a1.81 1.81 0 0 0-1.61-2h-.3a2.93 2.93 0 0 0-2.32 1.39v5.52h-1.9V1.44h1.9Zm11.21.85v3h3v1.6h-3v3.81c0 1.1.5 1.46 1.58 1.46a4.49 4.49 0 0 0 1.69-.33v1.6a6.8 6.8 0 0 1-2.21.35 2.55 2.55 0 0 1-2.86-2.74V6.87h-1.56V5.24h1.5V2.72Zm5.4 11.31V5.26H57v1a3.81 3.81 0 0 1 2.77-1.28 2.86 2.86 0 0 1 2.6 1.33 4.12 4.12 0 0 1 2.91-1.33 3.06 3.06 0 0 1 3.16 3.4v5.21h-1.9V8.44a1.59 1.59 0 0 0-1.42-1.75h-.23a2.8 2.8 0 0 0-2.07 1.12v5.78h-1.9V8.44a1.59 1.59 0 0 0-1.42-1.75h-.23a3 3 0 0 0-2.21 1.29v5.63h-1.72ZM71.17 1.43H73v12.15h-1.83V1.43ZM14.71-.02h-.16L0 1.52v26.67l14.55 8.66 14.55-8.66V1.52Zm12.5 27.1-12.66 7.54L1.9 27.1V16.16l12.59 7.5v1.32l-8.63-5.1v1.31l8.68 5.21v1.39l-8.67-5.16v1.35l8.68 5.21 8.75-5.24v-5.66l3.9-2.31V27.1Zm0-12.53-3.48 2-1.6 1-7.62-4.57v1.31L21 18.21l-.14.09-1 .54-5.37-3.2v1.34l4.24 2.52-1 .67-3.2-1.9v1.31l2.1 1.24-2.13 1.26L2 14.63l12.51-7.54Zm0-1.32L14.49 5.74 1.91 13.23v-10L14.56 1.9l12.65 1.33v10Z" fill="#231f20"/></symbol><symbol id="logotyle-mobile" viewBox="0 0 101.67 83.98"><g id="Layer_2"><g id="Layer_21" data-name="Layer_2"><path class="st4" d="m0 0 50.58 59.05L101.67 0H0z"/><path class="st3" d="M50.92 0H0v22.46l50.58 61.52.34-.42 50.75-60.39V0H50.92Zm0 57.05-.34.41L3.71 1.78h94.42L50.92 57.05Z"/><path class="st3" d="m50.58 57.46.34-.41L78.5 24.76c-6.91.95-11.86 6.08-18.6 4.95-3.4-.56-3.5-2.51-4.47-4.45-.75-1.49-1.94-1.3-3.49-1.91-1.44-.56-2.28-1.74-5.16-1.06-2.53.59-2.81 4.52-5.95 4.29-1.69-.12-1.81-2.5-4.24-5.54-6.3-7.57-12.16-6.52-16.25.47l30.25 35.94Z"/><path class="st1" d="M23.28 32.25c.51.62.89 1.28.81 2.12-.06.58-.94 1.55-.27 1.85.75-.94 1.5-1.89 2.24-2.83-.6-.15-5.37-5.85-5.44-6.47-1.05.58-2.11 1.16-3.16 1.73.16.66 1.3 0 1.85.05.83.06 1.42.56 1.95 1.15-1.73 1.45-5.93 5.02-6.38 5.09-.23.04-1.09-.6-1.1-.05 0 .26.85 1.01 1.01 1.21l2.23 2.65c.62-.28-.11-.73.2-1.24.23-.37 4.9-4.27 6.04-5.24ZM18.01 25.27c.44-.09.62.43.96-.06-.81-.97-1.63-1.95-2.45-2.92-.37-.44-.84-.92-.71.02.09.63-6.11 5.66-6.49 5.82-.48.2-.76-.42-1.11.1l2.19 2.61c.25.29.48.61.75.88.34.34.21-.67.22-.59-.09-.51.53-.95.85-1.23 1.55-1.36 5.4-4.59 5.78-4.64ZM9.24 24.35c-1.77.52-3.65-.16-4.21-2.04-.54-1.83.61-3.76 2.07-4.8 1.44-1.03 3.59-.97 4.37.84.35.8.16 1.71-.09 2.5-.16.51-.6 1 .06 1.29.86-1.1 1.72-2.19 2.58-3.29-1.06-.63-1.52-1.68-2.3-2.6-.88-1.07-2.06-2.08-3.48-2.28-2.87-.41-5.57 2.56-5.79 5.24-.14 1.46.37 2.85 1.25 4 .75.99 1.87 1.62 2.44 2.75.26.09 2.7-1.03 3.29-1.26-.05-.11-.09-.27-.17-.37-.76.23 0 0 0 0ZM48.54 60.76c-1.15-.77-4.03-4.69-4.57-5.34l-.33-.39c-.01-.02-.28.22-.25.19-.17.15.13.57-.05.87-.79 1.24-5.76 4.98-6.02 5.16-.55.38-1.16-.16-1.49.31.72.86 2.78 3.54 3.02 3.58.48.08.15-.81.21-1 .12-.37 2.63-2.45 3.55-3.21.34-.28.69.43.89.72.33.48.47 1 .3 1.57-.12.37-.72.92-.25 1.17.62-.72 2.36-2.75 2.61-3.05.25-.29-.57-.04-.47-.09-.37.19-.72.23-1.06-.03-.1-.07-1.09-1.08-.99-1.17.43-.36.96-.96 1.52-1.1.86-.21 1.58 1.52 1.71 2.13.12.58.1 1.19-.08 1.75-.12.39-.49.7.02.93.71-.97 1.42-1.94 2.13-2.92-.15 0-.28-.02-.4-.09-.13-.08.14.07 0 0ZM38.31 56.63c2.21-1.86 2.48-5.05.77-7.34-1.87-2.49-5.37-3.1-7.81-1.05-2.2 1.85-2.49 5.05-.76 7.32 1.99 2.62 5.2 2.92 7.79 1.07 1.16-.97-.1.07 0 0Zm-.46-4.75c-.65 1.51-2.2 3.06-3.73 3.67-1.82.71-3.1-.83-2.36-2.55.65-1.52 2.2-3.06 3.74-3.67 1.85-.73 3.07.85 2.36 2.55-.38.89.07-.17 0 0ZM31.87 42.02c.48.06.93.55 1.27.04-.74-.88-1.48-1.76-2.23-2.64-.6.27.05.55-.19.97-.24.43-2.56.78-3.18.89.22-.64.9-2.62 1.16-2.83.54-.44.88.43 1.28-.14-.92-1.08-1.83-2.17-2.74-3.25-.31-.37-.56-1.03-.98-.68.04-.03 0 1.47-.09 1.73-.09.24-.94 3.64-1.93 4.47-.49.41-2.24 1.93-2.7 2.1-.54.19-.82-.6-1.22-.04.83.99 1.66 1.97 2.49 2.96.12.15.6.86.77.89.52.1.06-.89.11-1.09.15-.43 2.5-2.72 3.5-2.86 1.46-.21 3.2-.71 4.68-.53.34.04-.35-.04 0 0ZM69.21 52.45c.19.65.3 1.33.21 2.01-.11.87-.98 2.92-2.17 2.34-1.17-.57-2.19-1.73-3.19-2.55.8-.94 1.51-1.75 2.85-1.29.37.12.69-.04.3-.26-.4-.23-3.11-1.96-3.26-1.8-.27.31.53.87.22 1.47-.23.45-.61.83-.93 1.22-.72-.61-1.92-1.25-1.06-2.26.54-.66 1.25-1.17 2.1-1.34.56-.11 1.84.39 2.01-.22-1.09-.52-2.17-1.04-3.26-1.56.18.8-3.35 4.52-4.13 5.46-.11.14-.66.61-.66.8 0 .43.62.1.66.08.49-.18 6.82 5.11 6.97 5.47.1.28-.22.57-.03.73-.01 0 .23.22.25.19.39-.47 4.52-5.98 5.37-6.22-.79-1.21-1.59-2.43-2.37-3.65-.59.26-.02.95.11 1.39ZM63.04 59.15c-2.08-1.34-5.6 1.28-6.12 1.53-1.04.49-1.79-.54-1.25-1.5.47-.83 1.39-1.23 2.31-1.29.28-.02 1.35.2 1.46.03.13-.2.23-.22.04-.35-.85-.58-1.71-1.15-2.57-1.73-.18 1.06-1.39 1.73-2.08 2.44-.82.86-1.52 1.93-1.52 3.16 0 1.13.68 2.14 1.68 2.66 1.14.59 2.32.12 3.32-.51.63-.39 1.25-.86 1.92-1.17 1-.47 2.31-.06 1.95 1.27-.28 1.07-1.35 2.06-2.4 2.34-.62.16-1.27.11-1.87-.09-.43-.14-.99-.73-1.23-.11 1.16.85 2.32 1.69 3.48 2.54.1-.76.52-1.09 1.09-1.56.74-.65 1.44-1.32 1.99-2.13 1.16-1.69 1.54-4.06-.21-5.51ZM63.04 59.15c.93.6-.59-.49 0 0ZM92.28 21.84ZM99.73 19.63c-.73.73-8.42-2.34-8.98-2.76-.29-.12-.3-1.32-.71-.83-.4.49-.81.98-1.21 1.46-.42.51-.84 1.01-1.26 1.51-.26.31-.54.46-.04.72.84-.42 5.42 7.35 5.01 8.46-.73.38-6.91-5.06-7.08-5.42-.05-.15.27-1.02-.21-.95-.23.04-.74.9-.89 1.07l-.89 1.07c.33.48.52-.02.96.04.38.08 1.84 1.33 2.24 1.66-.73.03-2.69.13-2.93.11-.9.11-.42-.66-1.02-.93l-2.28 2.76c-.44.54-.88 1.07-1.33 1.61-.05.07-.05.03.05.11.33.27.1.17.57 0 .51-.18 6.56 4.93 6.78 5.19.38.45-.15.98.41 1.22.6-.73 1.2-1.46 1.8-2.18.09-.11.14-.1.02-.2-.43-.35-.48.21-1 .15-.53-.09-4.4-3.37-5.9-4.61 1.82-.07 7.29-.27 8.2-.3.3-.01 1.14.9 1.07 1.22-.08.38-.46.56.06.79.48-.58.98-1.15 1.46-1.73l.23-.28c.08-.05.15-.15.21-.26l.17-.21c.43-.49 1.8-2.01 1.63-2.15-.46-.4-.68.47-1.3-.05-.35-.25-1.22-1.79-1.44-2.16-.26-.45.61-.9.96-1.12.78-.48 3.25-1.18 3.48.35.04.26-.27.55-.08.7.04.04.21.24.27.16.16-.2 2.36-2.84 3.3-3.97-.1-.08-.21-.22-.32-.27Zm-7.37 2.15c.08-.05.15-.1 0 0-.05.03-.07.05-.08.05.01 0 .05-.03.08-.05-.35.22-.67.47-.96.76-.52-.9-1.04-1.79-1.56-2.69 1.18.49 2.35.99 3.52 1.48-.35.1-.69.25-1 .45ZM82.62 33c-2.37-1.98-5.63-1.4-7.59.83-1.9 2.31-1.71 5.66.61 7.62 2.34 1.93 5.67 1.44 7.57-.85 1.9-2.3 1.77-5.67-.59-7.6Zm-.29 6.61s-.02.03-.03.03c-1.23 1.29-3.36.1-4.51-.73s-3.11-2.57-1.86-4.1c1.06-1.29 3.12-.23 4.19.48 1.2.8 3.41 2.6 2.28 4.22.07-.09.13-.15-.08.11Z"/><path class="st1" d="M82.62 33c1.17.96-.25-.21 0 0ZM82.31 39.64l.03-.03c.03-.04.06-.07.08-.11-.05.06-.11.14-.11.14ZM76.02 42.12c.11.09.27.22-.06-.06-2.84-2.13-6.19-1.5-8.4 1.16-.99 1.19-1.98 2.38-2.96 3.57.35.51.76-.12 1.27.18.44.25 6.24 5.1 6.34 5.36.16.46-.25.55.14.88.17.14 4.54-5.24 4.94-6.19.69-1.75.14-3.68-1.27-4.89Zm-1.31 6.75c-.24.3-.04.05-.66.65-.31.29-6.44-4.68-6.19-4.94.83-.92 2.57-1.56 3.58-1.3 2.19.56 5.21 3.26 3.28 5.59Z"/></g><path class="st3" d="m50.58 57.48.34-.41L78.5 24.78c-6.91.95-11.86 6.08-18.6 4.96-3.4-.56-3.5-2.51-4.47-4.46-.75-1.49-1.94-1.3-3.49-1.91-1.44-.56-2.28-1.74-5.16-1.06-2.53.59-2.81 4.52-5.95 4.29-1.69-.12-1.81-2.5-4.24-5.54-6.3-7.57-12.16-6.52-16.25.48l30.25 35.94Z"/><path class="st4" d="m46.56 70.92 4.02-6.5 4 6.5-4 6.51-4.02-6.51z"/><path class="st1" d="M23.28 32.27c.51.62.89 1.28.81 2.12-.06.58-.94 1.55-.27 1.85.75-.94 1.5-1.89 2.24-2.83-.6-.15-5.37-5.85-5.44-6.47-1.05.58-2.11 1.16-3.16 1.73.16.66 1.29 0 1.85.05.83.06 1.42.56 1.95 1.15-1.73 1.45-5.93 5.02-6.37 5.09-.23.04-1.09-.6-1.1-.06 0 .26.85 1.01 1.01 1.21l2.23 2.65c.62-.28-.11-.73.21-1.24.23-.37 4.9-4.27 6.04-5.24ZM18.01 25.29c.44-.1.62.43.96-.06-.82-.97-1.63-1.94-2.45-2.92-.37-.44-.84-.92-.71.02.09.63-6.11 5.66-6.49 5.82-.48.2-.76-.42-1.11.1l2.19 2.61c.25.29.48.61.75.88.34.34.21-.67.22-.58-.09-.51.53-.95.86-1.23 1.55-1.36 5.4-4.59 5.78-4.64ZM9.24 24.37c-1.77.52-3.65-.16-4.21-2.04-.54-1.83.61-3.76 2.07-4.8 1.44-1.03 3.59-.97 4.37.84.35.8.16 1.71-.09 2.5-.16.51-.6 1 .06 1.29.86-1.1 1.72-2.19 2.58-3.29-1.06-.63-1.52-1.68-2.3-2.6-.88-1.07-2.06-2.08-3.48-2.28-2.87-.41-5.57 2.56-5.79 5.24-.14 1.46.37 2.85 1.25 4 .75.99 1.87 1.62 2.43 2.75.26.09 2.71-1.03 3.29-1.26-.05-.11-.09-.27-.17-.37-.76.23 0 0 0 0ZM48.54 60.78c-1.15-.77-4.03-4.69-4.57-5.34l-.33-.39c-.01-.01-.28.22-.25.19-.17.15.13.57-.05.86-.79 1.24-5.76 4.98-6.02 5.16-.56.38-1.16-.16-1.49.32.72.85 2.78 3.54 3.02 3.58.48.08.15-.81.21-1 .12-.37 2.63-2.45 3.55-3.21.34-.28.69.43.89.72.33.48.47 1 .3 1.57-.12.37-.72.92-.25 1.17.62-.72 2.36-2.75 2.61-3.05.25-.29-.57-.04-.47-.09-.37.19-.72.24-1.06-.03-.1-.07-1.09-1.08-.99-1.17.43-.36.96-.96 1.52-1.1.86-.21 1.58 1.52 1.71 2.13.12.58.1 1.19-.08 1.75-.12.39-.49.7.02.93.71-.97 1.42-1.95 2.13-2.92-.15 0-.28-.02-.4-.1-.13-.09.14.07 0 0ZM38.31 56.65c2.21-1.86 2.48-5.05.77-7.34-1.87-2.49-5.37-3.1-7.8-1.05-2.2 1.85-2.49 5.05-.76 7.32 1.99 2.62 5.2 2.92 7.79 1.07 1.16-.97-.1.07 0 0Zm-.46-4.76c-.65 1.51-2.2 3.06-3.73 3.67-1.82.71-3.1-.83-2.36-2.55.65-1.52 2.2-3.06 3.74-3.67 1.85-.74 3.07.85 2.36 2.55-.38.89.07-.17 0 0ZM31.87 42.04c.47.06.93.55 1.27.04-.74-.88-1.48-1.76-2.23-2.64-.59.27.05.55-.19.97-.24.43-2.56.78-3.18.89.22-.64.9-2.62 1.16-2.84.54-.44.88.43 1.28-.14l-2.74-3.25c-.31-.37-.56-1.03-.98-.68.04-.03 0 1.47-.09 1.73-.09.24-.94 3.64-1.93 4.47-.49.41-2.24 1.93-2.7 2.1-.54.19-.83-.6-1.22-.04.83.99 1.66 1.97 2.49 2.96.12.15.6.86.77.89.52.09.06-.89.11-1.09.15-.43 2.5-2.72 3.5-2.86 1.46-.2 3.2-.7 4.68-.52.34.04-.35-.04 0 0Z"/><path class="st5" d="M25.61 22.87c-4.04-.17-2.35-3.95.39-4.81 2.61-.81 8.09 1.72 9.84 3.4-2.78.85-6.39.73-9.45.87-.23-3.12-.96-2.03-.79.54ZM26.62 27.72c-2.04-1.58-1.4-5.27 1.76-4.15 4.01 2.08-.86 3.24-1.76 4.15 0 0 .04-.04 0 0ZM35.11 35.42c-8.62-.07-2.79-13.32.14-12.52 3.37 1.07 3 12.62-.14 12.52ZM41.22 31.09c-.84 2.5-2.36 2.97-2.19-.07.19-3.5 2.48-2.66 4.93-4 2.04-1.12 3.14-5.21 6.64-2.77 1.56 1.09 3.35.18 3.85 1.83-.03-.08-4.54 10.31-2.03 10.31-4.96 0-2.77-5.92-.87-9.9-1.85.88-4.84 6.69-2.38 7.64-1.28 1.69-5.19 3.94-7.23 2.3-1.55-1.25-.69-3.33-.71-5.34ZM45.32 40.7c-3.49 1.05-8.12-1.21-2.51-2.34 3.48-.7 7.19.78 2.51 2.34.14-.04-.13.04 0 0ZM49.69 40.56c-.74-1.66.56-3.64 2.68-2.2 1.85 1.25-.85 3.11-2.68 2.2ZM46.74 45.22c-2.41-.75-10.54-.56-5.22-2.76 1.64-.68 10.15.1 5.22 2.76ZM49.96 44.87c0-.96-.51-2.68 1.35-1.95 2.23.88-1.35 2.65-1.35 1.95 0 0 0-.17 0 0ZM57.18 48.54c-1.44-1.23-2.89-1.29-4.23 0-1.79-3.29-8.32-2.19-11.37-2.65 1.64 4.03 14.86 4.78 15.59 2.65ZM55.28 50.96c-3.15-.15-6.67-.56-9.65.08 1.86.47 6.4 1.79 2.17 2.92 1.52 2.17 3.97 2.03 5.58.13-.65-.32-1.01-.72-1.55-1.06 1.67-.3 3.23-1.27 3.44-2.07ZM58.87 47.08c-5.29-3.11-3.95-5.43.35-7.59 2.25-1.13 7.32-5.21 9.45-3.85-3.27 3.81-6.54 7.62-9.8 11.44Z"/><path d="M55.11 39.81c-4.48-4.6 6.69-4.18 8.49-5.8 1.31.44 10.77-8.28 13.07-7.74-1.66 1.94-5.22 8.14-7.77 8.14-1.96 0-3.95-.29-5.47 1.11-2.22 2.05-5.91 3.09-8.31 4.29Z" style="fill:#f49774"/><path d="M56.57 34.18c-2.45 1.32-4.77-3.91-.54-3.4 2.81.34 5.66-.24 8.35.23-1.93 2.29-4.71 3.55-7.81 3.17Z" style="fill:#f4b1a4"/><path class="st1" d="M69.21 52.47c.19.65.3 1.33.21 2.01-.11.87-.98 2.92-2.17 2.34-1.17-.57-2.19-1.73-3.19-2.55.8-.94 1.51-1.75 2.85-1.29.37.12.69-.04.3-.26-.4-.23-3.11-1.96-3.26-1.8-.27.31.53.87.22 1.47-.23.45-.61.83-.93 1.22-.72-.61-1.92-1.25-1.06-2.26.54-.66 1.25-1.17 2.1-1.34.57-.11 1.84.39 2.01-.22-1.09-.52-2.17-1.04-3.26-1.57.18.8-3.35 4.52-4.13 5.46-.11.14-.66.61-.66.8 0 .43.62.1.66.08.49-.18 6.82 5.11 6.97 5.47.1.28-.22.57-.03.73-.01 0 .23.22.25.18.39-.47 4.52-5.98 5.37-6.22-.79-1.21-1.59-2.43-2.37-3.65-.59.26-.02.95.11 1.39ZM63.04 59.17c-2.08-1.34-5.6 1.28-6.12 1.53-1.04.49-1.79-.54-1.25-1.5.47-.83 1.39-1.23 2.31-1.29.28-.02 1.35.2 1.46.03.13-.2.23-.22.04-.35-.86-.58-1.71-1.16-2.57-1.73-.18 1.06-1.38 1.73-2.08 2.44-.82.85-1.52 1.93-1.52 3.16 0 1.13.68 2.14 1.68 2.66 1.14.59 2.32.12 3.32-.51.63-.39 1.25-.86 1.92-1.17 1-.47 2.3-.06 1.95 1.27-.28 1.07-1.35 2.06-2.41 2.34-.62.16-1.27.11-1.87-.09-.43-.14-.99-.73-1.23-.11 1.16.85 2.32 1.69 3.48 2.54.1-.76.52-1.09 1.09-1.56.74-.65 1.44-1.32 1.99-2.13 1.16-1.69 1.54-4.06-.21-5.51ZM63.04 59.17c.92.6-.59-.49 0 0ZM92.28 21.85ZM99.74 19.64c-.73.73-8.42-2.34-8.98-2.76-.29-.12-.3-1.32-.71-.83-.4.49-.81.98-1.22 1.46-.42.51-.84 1.01-1.26 1.51-.26.31-.54.46-.04.72.84-.42 5.42 7.35 5.01 8.46-.72.38-6.92-5.06-7.08-5.42-.05-.15.27-1.02-.21-.94-.23.04-.74.9-.89 1.07l-.89 1.07c.33.48.52-.02.96.04.38.08 1.84 1.33 2.24 1.66-.72.03-2.68.13-2.93.11-.9.11-.42-.66-1.01-.93l-2.28 2.76c-.44.54-.88 1.07-1.33 1.61-.05.06-.05.03.05.11.33.27.1.17.57 0 .51-.18 6.56 4.93 6.78 5.19.38.45-.15.98.41 1.22.6-.73 1.2-1.46 1.8-2.18.09-.11.14-.1.02-.2-.43-.35-.48.21-1 .15-.53-.09-4.39-3.37-5.89-4.61 1.82-.07 7.29-.27 8.2-.3.3-.01 1.14.9 1.07 1.22-.08.38-.46.56.05.79.48-.58.99-1.15 1.46-1.73l.23-.28c.08-.05.15-.14.21-.26l.17-.21c.42-.48 1.8-2.01 1.63-2.15-.46-.4-.68.47-1.3-.05-.35-.25-1.22-1.79-1.44-2.16-.26-.45.61-.9.96-1.12.78-.48 3.25-1.18 3.48.35.04.26-.27.55-.08.7.04.04.2.24.27.16.16-.2 2.36-2.84 3.3-3.97-.1-.08-.21-.22-.32-.27Zm-7.38 2.16c.08-.05.15-.1 0 0-.05.03-.07.05-.08.05.01 0 .05-.03.08-.05-.34.22-.67.47-.96.76-.52-.9-1.04-1.79-1.56-2.69 1.18.49 2.35.98 3.52 1.48-.35.1-.69.25-1 .45ZM82.62 33.01c-2.37-1.98-5.63-1.4-7.59.83-1.9 2.31-1.71 5.66.6 7.62 2.34 1.93 5.67 1.44 7.57-.85 1.9-2.3 1.77-5.67-.59-7.6Zm-.29 6.62s-.02.03-.03.03c-1.23 1.29-3.36.1-4.51-.73s-3.11-2.57-1.86-4.1c1.06-1.29 3.12-.23 4.19.48 1.2.8 3.41 2.6 2.28 4.22.07-.09.13-.15-.08.11Z"/><path class="st1" d="M82.62 33.01c1.17.96-.25-.21 0 0ZM82.31 39.65l.03-.03c.03-.04.06-.07.08-.11-.05.06-.11.14-.11.14ZM76.02 42.14c.11.09.27.22-.06-.06-2.83-2.13-6.19-1.5-8.4 1.16-.99 1.19-1.98 2.38-2.96 3.57.35.51.76-.12 1.27.18.44.25 6.24 5.1 6.34 5.37.16.46-.25.55.14.88.17.14 4.54-5.25 4.93-6.19.69-1.75.14-3.68-1.26-4.89Zm-1.31 6.75c-.24.3-.04.05-.66.65-.31.29-6.44-4.68-6.19-4.94.83-.92 2.57-1.56 3.58-1.3 2.19.56 5.21 3.26 3.28 5.59Z"/></g></symbol><symbol id="mail" viewBox="0 0 16 16"><path d="M8 10c-.27 0-.5-.09-1-.34L0 6v7c0 .55.45 1 1 1h14c.55 0 1-.45 1-1V6L9 9.66c-.5.24-.73.34-1 .34Zm7-8H1c-.55 0-1 .45-1 1v.76l8 4.21 8-4.21V3c0-.55-.45-1-1-1Z"/></symbol><symbol id="nav-btn" viewBox="0 0 22.93 21.98"><path d="M0 0h22.93v3.96H0zM0 9.01h22.93v3.96H0zM0 18.02h22.93v3.96H0z"/></symbol><symbol id="phone" viewBox="0 0 18 18"><path d="M3.6 7.8c1.4 2.8 3.8 5.1 6.6 6.6l2.2-2.2c.3-.3.7-.4 1-.2 1.1.4 2.3.6 3.6.6.6 0 1 .4 1 1V17c0 .6-.4 1-1 1C7.6 18 0 10.4 0 1c0-.6.4-1 1-1h3.5c.6 0 1 .4 1 1 0 1.2.2 2.4.6 3.6.1.3 0 .7-.2 1L3.6 7.8Z" style="fill:#010101"/></symbol><symbol id="star"><path fill="#81B3D2" d="m9.002 0 2.126 6.494h6.877l-5.564 4.012L14.566 17l-5.564-4.013L3.438 17l2.126-6.494L0 6.494h6.878z"/></symbol><symbol id="text-indexhero" viewBox="0 0 459.75 350.07"><path class="st1" d="m165.42 70-.2.23c-1.35 1.47-3.02 2.19-4.52 2.22l2.82-4.86c1.81-3.14.14-6.1-2.68-6.1-2.3 0-4.09.92-5.81 3.92l-1.47 2.56-1.23 2.1-.15.18c-2.16 2.51-4.26 4.49-5.59 4.49-.66 0-1.04-.46-.35-1.64l6.42-11.2h2.45l.86-1.44h-2.48l2.82-4.89h-2.99l-2.82 4.89h-2.71l-.86 1.44h2.73l-6.02 10.42c-1.27 2.22-.37 4.26 2.04 4.26 1.74 0 3.66-1.31 5.51-3.08 0 3.82 5.3 4.56 8.54.46h.66c1.78 0 4.61-1.09 6.13-2.91-.2-.41-.72-.87-1.12-1.04Zm-6.39.2h-.14c-.98 0-1.76.81-1.76 1.79 0 .37.12.72.29 1.01l-.03.06c-1.41 2.42-4.84 1.96-3.05-1.15l2.27-3.94 1.44-2.45c2.1-3.57 4.98-2.16 3.17.95l-2.19 3.74ZM206.88 70l-.2.23c-2.16 2.51-4.92 4.49-7.02 4.49-1.84 0-2.94-1.15-1.55-3.57l.29-.52c1.93.81 5.56.43 7.8-3.46l.43-.75c1.61-2.76.06-4.84-2.39-4.84s-4.35 1.27-5.61 3.46l-2.91 4.98-.17.2c-2.16 2.5-4.26 4.49-5.59 4.49-.66 0-1.04-.46-.35-1.64l4.32-7.57c1.29-2.27.06-3.92-1.61-3.92-1.3 0-2.68.72-4.18 2.27l4.78-8.32h-2.99l-8.35 14.49-.17.19c-2.16 2.51-4.26 4.49-5.59 4.49-.66 0-1.04-.46-.35-1.64l6.42-11.2h2.45l.86-1.44h-2.48l2.82-4.89h-2.99l-2.82 4.9h-2.71l-.86 1.44h2.73l-6.02 10.42c-1.27 2.22-.37 4.26 2.04 4.26 1.21 0 2.52-.64 3.82-1.63l-.77 1.34h3.02l4.55-7.92c4.61-5.79 6.65-5.04 5.35-2.82l-3.89 6.77c-1.27 2.22-.37 4.26 2.05 4.26 1.78 0 3.76-1.37 5.65-3.22.15 1.86 1.65 3.22 4.05 3.22 3.4 0 6.77-2.65 9.24-5.53-.2-.4-.71-.86-1.12-1.04Zm-5.7-4.2c1.73-2.96 4.78-2.48 3 .63l-.43.75c-1.44 2.45-3.37 2.39-4.49 1.99l1.93-3.37ZM316.05 70l-.2.23c-1.1 1.29-2.42 2.45-3.6 3.25.95-2.85.75-7.23 2.59-11.06l-2.25-1.21c-1.24 1.7-3.94 5.62-6.65 8.78s-.2.23-.2.23c-2.16 2.51-4.26 4.49-5.59 4.49-.66 0-1.04-.46-.34-1.64l6.39-11.2h-2.99l-5.33 9.3c-2.27 2.07-4.03 3.22-4.61 2.96-.75-.31 0-1.44.37-2.07l5.84-10.19h-3l-4.7 8.12-.2.23c-1.35 1.47-3.02 2.19-4.52 2.22l2.82-4.87c1.81-3.14.15-6.1-2.68-6.1-2.3 0-4.09.92-5.82 3.92l-1.47 2.56-1.23 2.1-.15.18c-2.16 2.51-4.92 4.49-7.02 4.49-1.84 0-2.94-1.15-1.56-3.57l.29-.52c1.93.81 5.56.43 7.8-3.45l.43-.75c1.61-2.76.06-4.84-2.39-4.84s-4.35 1.27-5.62 3.45l-2.9 4.98-.17.2c-2.48 2.85-4.61 4.69-6.97 5.7l6.71-11.46h-1.76c0-1.24-1.27-2.88-3.14-2.88-1.61 0-3.86 1.27-5.12 3.46L254.24 70l-.2.23c-2.16 2.5-4.26 4.49-5.59 4.49-.66 0-1.04-.46-.35-1.64l2.99-5.24c1.04-1.81.55-2.88-.43-4.06l-1.67-2.02c-.43-.55-.43-1.15.17-1.73l-1.55-1.7c-1.7 1.52-1.84 3.23-.78 4.61l.26.35c-1.32 1.87-3.11 4.4-5.07 6.71s-.2.23-.2.23c-1.35 1.47-3.02 2.19-4.52 2.22l2.82-4.87c1.81-3.14.14-6.1-2.68-6.1-2.3 0-4.09.92-5.81 3.92l-1.47 2.56-1.23 2.1-.15.17c-2.48 2.85-4.61 4.69-6.97 5.7l6.71-11.46h-1.76c0-1.24-1.27-2.88-3.14-2.88-1.61 0-3.86 1.27-5.12 3.46l-4.2 7.26c-1.27 2.22-.38 4.26 2.04 4.26.84 0 1.84-.37 2.85-1.01l-.83 1.41c-4.03 1.24-6.56 2.88-6.56 5.12 0 2.88 4.4 3.48 6.56-.2l2.27-3.95c2.4-.75 4.74-2.15 7.18-4.48-.02 3.83 5.29 4.58 8.54.48h.66c1.79 0 4.61-1.09 6.13-2.91 1.44-1.67 2.56-3.17 4.95-6.42l.4.49c.37.49.52 1.09.17 1.7l-3.17 5.5c-1.27 2.22-.37 4.26 2.04 4.26 1.52 0 3.18-1 4.8-2.43-.05 1.39.88 2.43 2.6 2.43.83 0 1.84-.37 2.85-1.01l-.84 1.41c-4.03 1.24-6.56 2.88-6.56 5.12 0 2.88 4.4 3.48 6.56-.2l2.27-3.94c2.44-.76 4.83-2.21 7.32-4.62.13 1.88 1.65 3.24 4.06 3.24s4.86-1.37 6.95-3.2c-.12 3.92 5.27 4.72 8.54.58h.66c.94 0 2.16-.31 3.33-.86-.81 2.08-.06 3.48 1.65 3.48s3.48-1.5 4.92-2.88c-.29 1.61.66 2.88 2.56 2.88 2.48 0 5.33-2.65 7.8-5.53 1.7-1.96 3.2-4.06 4.26-5.47-1.18 3.11-.55 8.69-3.4 8.69-1.01 0-1.41-1.09-1.41-1.09l-1.87.98s.55 2.42 3.28 2.42c.29 0 .55-.03.83-.06.03 0 .06-.03.09-.03 3.05-.4 6.07-2.82 8.32-5.44-.17-.46-.69-.92-1.12-1.04Zm-42.99-4.2c1.73-2.96 4.78-2.48 2.99.63l-.43.75c-1.44 2.45-3.37 2.39-4.49 1.99l1.93-3.37Zm-57.17 15.6c-.63 1.12-1.64.95-1.64.14s.72-1.67 2.99-2.56l-1.35 2.42Zm1.38-6.68c-.66 0-1.04-.46-.35-1.64l4.18-7.29c1.61-2.79 4.81-2.07 3.34.63l-2.27 3.97c-1.82 2.91-3.63 4.32-4.9 4.32Zm18.4-4.52h-.15c-.98 0-1.76.81-1.76 1.79 0 .37.12.72.29 1.01l-.03.06c-1.41 2.42-4.84 1.96-3.05-1.15l2.27-3.94 1.44-2.45c2.1-3.57 4.98-2.16 3.17.95l-2.19 3.74Zm18.82 11.2c-.63 1.12-1.64.95-1.64.14s.72-1.67 2.99-2.56l-1.35 2.42Zm1.39-6.68c-.66 0-1.04-.46-.35-1.64l4.18-7.29c1.61-2.79 4.81-2.07 3.34.63l-2.27 3.97c-1.81 2.91-3.63 4.32-4.9 4.32Zm29.54-4.52h-.15c-.98 0-1.76.81-1.76 1.79 0 .37.12.72.29 1.01l-.03.06c-1.41 2.42-4.84 1.96-3.05-1.15l2.27-3.94 1.44-2.45c2.1-3.57 4.98-2.16 3.17.95l-2.19 3.74ZM101.42 66.82h28.92v1.96h-28.92zM328.42 66.82h28.92v1.96h-28.92z"/><path class="st2" d="M163.18 0h7.71l-1.21 44.92h-14.52l-1.98-18.54-1.98 18.54h-14.59L135.46 0h7.65l.64 37.15h.83L149.36 0h7.58l4.91 37.15h.76L163.18 0ZM195.03 37.15v7.77h-20.9V0h20.9v7.7h-13.25v10.84h10.57v7.7h-10.57v10.91h13.25ZM216.37 37.15v7.77h-18.28V0h7.65v37.15h10.64ZM232.62 28.36l7.71-1.8v13.6c0 2.57-2.17 4.75-4.71 4.75h-11.47c-2.61 0-4.71-2.18-4.71-4.75V4.75c0-2.63 2.1-4.75 4.71-4.75h11.47c2.55 0 4.71 2.12 4.71 4.75v9.11l-7.71 1.8V7.7h-5.54v29.45h5.54v-8.79ZM261.09 0c2.55 0 4.72 2.12 4.72 4.75v35.42c0 2.57-2.17 4.75-4.72 4.75h-11.47c-2.61 0-4.71-2.18-4.71-4.75V4.75c0-2.63 2.1-4.75 4.71-4.75h11.47Zm-2.99 7.7h-5.54v29.45h5.54V7.7ZM290.84 0h7.58v44.92h-7.65V22.85l-3.06 11.42h-7.45l-2.99-11.42v22.07h-7.65V0h7.58l6.82 21.69L290.84 0ZM323.13 37.15v7.77h-20.9V0h20.9v7.7h-13.25v10.84h10.58v7.7h-10.58v10.91h13.25Z"/><path class="st0" d="M44.47 157.61c-3.57-2.98-8.14-4.96-12.9-4.96-3.57 0-8.34 2.08-8.34 6.25s5.26 6.06 8.64 7.15l4.96 1.49c10.42 3.08 18.46 8.34 18.46 20.45 0 7.45-1.79 15.09-7.74 20.15-5.85 4.96-13.7 7.05-21.24 7.05-9.43 0-18.66-3.18-26.31-8.54l8.34-15.68c4.87 4.27 10.62 7.74 17.27 7.74 4.57 0 9.43-2.28 9.43-7.54s-7.64-7.34-11.81-8.54c-12.21-3.48-20.25-6.65-20.25-21.14s10.82-25.11 25.81-25.11c7.54 0 16.77 2.38 23.43 6.15l-7.75 15.09ZM91.83 154.83v12.51h21.94v16.48H91.83v12.9h23.13v16.48H72.38v-74.84h42.58v16.48H91.83ZM129.42 138.35h27.59c20.84 0 38.02 16.38 38.02 37.42s-17.27 37.42-38.02 37.42h-27.59v-74.84Zm19.45 58.37h4.37c11.61 0 21.54-6.35 21.54-20.94 0-13.4-8.83-20.94-21.34-20.94h-4.56v41.89ZM286.87 174.38c0 24.22-17.37 41.29-41.39 41.29s-41.39-17.07-41.39-41.29c0-22.63 19.85-38.51 41.39-38.51s41.39 15.88 41.39 38.51Zm-62.53.1c0 12.9 9.53 22.33 21.14 22.33s21.14-9.43 21.14-22.33c0-10.32-9.53-19.75-21.14-19.75s-21.14 9.43-21.14 19.75ZM297.24 138.35h19.45l35.64 45.76h.2v-45.76h19.45v74.84h-19.45l-35.63-45.86h-.2v45.86h-19.45v-74.84ZM407.35 200.19l-5.16 13h-20.65l28.79-74.84h21.24l28.19 74.84h-20.75l-4.86-13h-26.8Zm13.6-38.71h-.2l-8.04 23.82h16.18l-7.94-23.82ZM108.08 287.74c7.66-2.59 8.24-12.18.69-12.18-2.08 0-4.56 1.46-6.27 4.45l-10.21 17.65c-.48.84-.95 1.53-1.46 2.15-2.63-3.61-1.86-9.01 1.82-11.38l-1.53-1.93c-7.95 5.07-5.62 19.69 7.66 19.69 11.34 0 16.59-13.6 9.3-18.45Zm-9.37 15.54c-2.26 0-4.05-.51-5.47-1.31.66-.77 1.31-1.71 1.9-2.7l6.38-11.05 1.02.11c8.9 1.86 5.36 14.95-3.83 14.95Zm4.08-17.29 3.06-5.25c2.77-4.78 6.31-1.97 4.41 1.6-1.46 2.74-3.61 3.57-7.48 3.65Z"/><path class="st0" d="M140.16 300c-.63 2.25.57 4.08 3.15 4.08 1.53 0 3.43-.98 5.25-2.48.18 1.46 1.35 2.48 3.28 2.48s4.23-1.39 6.39-3.36c-.42 2.05.54 3.36 2.41 3.36 2.08 0 4.41-1.9 6.24-3.65-.36 2.04.84 3.65 3.25 3.65 3.14 0 6.75-3.35 9.88-7-.02-.05-.07-.1-.1-.15 2.1-2.44 3.95-5.03 5.27-6.78-1.5 3.94-.69 11.01-4.3 11.01-1.27 0-1.79-1.39-1.79-1.39l-2.37 1.24s.69 3.06 4.16 3.06c.36 0 .69-.04 1.06-.07.04 0 .07-.04.11-.04 2.79-.37 5.55-2.06 7.94-4.23.06 2.5 1.99 4.33 5.14 4.33 4.3 0 8.57-3.35 11.71-7-.25-.51-.91-1.09-1.42-1.31l-.26.29c-2.73 3.17-6.24 5.69-8.9 5.69-2.33 0-3.72-1.46-1.97-4.52l.36-.66c2.44 1.02 7.04.55 9.88-4.38l.55-.95c2.04-3.5.07-6.13-3.03-6.13s-5.51 1.6-7.11 4.38l-3.68 6.32s-.07-.04-.1-.05l-.26.29c-1.39 1.64-3.06 3.1-4.56 4.12 1.2-3.61.95-9.15 3.28-14l-2.84-1.53c-1.57 2.15-5 7.11-8.42 11.12.03.05.07.09.11.14l-.14.15c-2.73 3.17-5.4 5.69-7.08 5.69-.84 0-1.31-.58-.44-2.08l8.1-14.19h-3.79l-6.75 11.78c-2.88 2.63-5.1 4.08-5.83 3.76-.95-.4 0-1.82.48-2.62l7.4-12.91h-3.79l-6.04 10.45c-.1-.06-.2-.12-.29-.16l-.25.29c-2.73 3.17-5.4 5.69-7.08 5.69-.84 0-1.31-.58-.44-2.08l6.13-10.72h-2.15c.15-1.6-1.49-3.83-3.98-3.83-2.04 0-4.89 1.61-6.49 4.38l-3.85 6.64c-.19-.15-.39-.29-.58-.36l-.26.29c-2.73 3.17-6.24 5.69-8.9 5.69-2.33 0-3.72-1.46-1.97-4.52l3.9-6.78c2.19-3.76 6.05-3.14 3.79.8l-.55.95h3.1l.55-.95c2.04-3.5.07-6.13-3.03-6.13s-5.51 1.61-7.11 4.38l-3.77 6.47a1.74 1.74 0 0 0-.35-.19l-.26.29c-2.73 3.17-6.24 5.69-8.9 5.69-2.33 0-3.72-1.46-1.97-4.52l.36-.66c2.44 1.02 7.04.55 9.88-4.38l.55-.95c2.04-3.5.07-6.13-3.03-6.13s-5.51 1.61-7.11 4.38l-3.98 6.82c-2.37 4.05-.33 7.77 4.16 7.77 3.34 0 6.66-2.02 9.44-4.63-.1 2.65 1.87 4.63 5.14 4.63 3.1 0 6.18-1.73 8.83-4.07Zm58.03-9.56c2.19-3.76 6.05-3.14 3.79.8l-.55.95c-1.82 3.1-4.27 3.03-5.69 2.52l2.44-4.27ZM144 299.67l5.29-9.23c2.04-3.54 6.09-2.63 4.23.8l-2.95 5.18c-2.3 3.61-4.56 5.32-6.13 5.32-.84 0-1.31-.58-.44-2.08Zm-24.19-9.23c2.19-3.76 6.05-3.14 3.79.8l-.55.95c-1.82 3.1-4.27 3.03-5.69 2.52l2.44-4.27ZM248.4 304.08c4.3 0 8.57-3.35 11.71-7-.25-.51-.91-1.09-1.42-1.31l-.25.29c-2.74 3.17-6.24 5.69-8.9 5.69-2.33 0-3.72-1.46-1.97-4.52l.37-.66c2.44 1.02 7.04.55 9.88-4.38l.55-.95c2.04-3.5.07-6.13-3.03-6.13s-5.5 1.6-7.11 4.38l-3.69 6.34s-.08-.05-.11-.06l-.26.29c-2.73 3.17-5.4 5.69-7.07 5.69-.84 0-1.31-.58-.44-2.08l5.47-9.59c1.64-2.88.07-4.96-2.04-4.96-1.64 0-3.39.91-5.29 2.88l6.05-10.54h-3.79l-10.7 18.56c-.15-.1-.3-.19-.43-.25l-.26.29c-2.74 3.17-5.4 5.69-7.08 5.69-.84 0-1.31-.58-.44-2.08l8.13-14.19h3.1l1.09-1.82h-3.14l3.57-6.2h-3.79l-3.57 6.2h-3.43l-1.09 1.82h3.46l-7.62 13.2c-1.6 2.81-.47 5.4 2.59 5.4 1.88 0 3.94-1.22 5.96-2.97l-1.5 2.61h3.83l5.76-10.03c5.84-7.33 8.42-6.38 6.78-3.57l-4.92 8.57c-1.6 2.81-.47 5.4 2.59 5.4 2.3 0 4.86-1.81 7.3-4.22.11 2.44 2.04 4.22 5.14 4.22Zm3.06-13.64c2.19-3.76 6.06-3.14 3.79.8l-.55.95c-1.82 3.1-4.27 3.03-5.69 2.52l2.44-4.27ZM363.42 295.77l-.26.29c-2.73 3.17-5.4 5.69-7.07 5.69-.84 0-1.31-.58-.44-2.08l12.84-22.21h-3.79l-5.58 9.63c-.66-1.06-1.9-1.97-3.47-1.97-2.04 0-4.89 1.6-6.49 4.38l-3.71 6.41c-.08-.05-.16-.1-.24-.13l-.26.29c-2.73 3.17-5.4 5.69-7.07 5.69-.84 0-1.31-.58-.44-2.08l5.47-9.59c1.64-2.88.07-4.96-2.04-4.96-1.64 0-3.35.88-5.25 2.85l1.42-2.48h-3.79l-6.06 10.49c-.12-.08-.25-.15-.36-.2l-.26.29c-2.73 3.17-5.4 5.69-7.07 5.69-.84 0-1.31-.58-.44-2.08l6.13-10.72h-2.15c.15-1.6-1.49-3.83-3.98-3.83-2.04 0-4.89 1.6-6.49 4.38l-3.67 6.33-.21.23c-2.73 3.17-5.4 5.69-7.07 5.69-.84 0-1.31-.58-.44-2.08l3.79-6.64c1.31-2.3.69-3.65-.55-5.14l-2.12-2.55c-.55-.69-.55-1.46.22-2.19l-1.97-2.15c-2.15 1.93-2.33 4.08-.99 5.83l.33.44c-1.68 2.37-3.94 5.58-6.42 8.5.07.11.16.21.26.32-3.12 3.59-5.78 5.92-8.76 7.19l4.81-8.24h-3.79l-.4.66c-2.01 3.54-4.3 6.05-7.26 6.05-2.59 0-3.06-2.59-.8-6.46l1.06-1.86c.69.11 1.39.18 2.15.18 13.49 0 20.02-18.05 8.13-18.05-2.08 0-4.56 1.46-6.27 4.45l-5.91 10.17c-2.23-1.17-3.39-3.28-3.39-5.4 0-1.75.8-3.5 2.44-4.78l-1.24-2.23c-2.7 1.93-3.9 4.52-3.9 7.07 0 3.03 1.72 5.94 4.78 7.55l-1.13 1.97c-2.66 4.6-2.19 9.7 3.17 9.7 1.6 0 2.95-.47 4.12-1.2l-.99 1.71c-5.14 1.57-8.31 3.65-8.31 6.49 0 3.65 5.58 4.41 8.31-.25l2.92-5c3.94-1.24 7.81-3.94 11.96-8.75-.06-.12-.14-.24-.24-.36 1.68-1.98 3.11-3.89 5.97-7.78l.51.62c.47.62.66 1.39.22 2.15l-4.01 6.96c-1.61 2.81-.47 5.4 2.59 5.4 1.91 0 3.99-1.24 6.03-3.04-.04 1.75 1.15 3.04 3.31 3.04 1.53 0 3.43-.98 5.25-2.48.18 1.46 1.35 2.48 3.28 2.48 1.82 0 3.79-1.13 5.74-2.79l-1.4 2.42h3.83l5.8-10.1c5.8-7.26 8.39-6.31 6.75-3.5l-4.92 8.57c-1.6 2.81-.47 5.4 2.59 5.4 2.02 0 4.23-1.39 6.38-3.35-.2 1.9 1.01 3.35 3.29 3.35 1.53 0 3.43-.98 5.25-2.48.18 1.46 1.35 2.48 3.28 2.48 3.14 0 6.75-3.35 9.88-7-.26-.51-.91-1.09-1.42-1.31Zm-77.96-14.16c1.13-1.93 2.37-2.77 3.43-2.77 6.02 0 1.79 12.25-8.13 12.25h-.77l5.47-9.48Zm-8.06 28.6c-.8 1.42-2.08 1.2-2.08.18s.87-2.11 3.79-3.25l-1.71 3.06Zm39.69-13.79c-2.3 3.61-4.56 5.32-6.13 5.32-.84 0-1.31-.58-.44-2.08l5.29-9.23c2.04-3.54 6.09-2.62 4.23.8l-2.95 5.18Zm36.7-.22c-2.3 3.76-4.63 5.54-6.24 5.54-.84 0-1.31-.58-.44-2.08l5.29-9.23c2.04-3.54 6.09-2.62 4.23.8h.04l-2.88 4.96ZM236.71 331.76l-.25.29c-2.73 3.17-5.4 5.69-7.07 5.69-.84 0-1.31-.58-.44-2.08l5.47-9.59c1.64-2.88.07-4.96-2.04-4.96-1.64 0-3.35.88-5.25 2.84l1.42-2.48h-3.79l-6.11 10.57c-.17-.12-.33-.23-.48-.29l-.26.29c-1.71 1.86-3.83 2.77-5.73 2.81l3.57-6.16c2.3-3.98.18-7.73-3.39-7.73-2.92 0-5.18 1.17-7.37 4.96l-1.86 3.25-1.63 2.78c-.12-.08-.23-.15-.34-.19l-.26.29c-3.14 3.61-5.8 5.94-8.79 7.22l10.39-17.8h-3.79L192 333.14c-2.92 2.7-5.18 4.19-5.91 3.86-.95-.4 0-1.82.47-2.62l7.4-12.91h-3.79l-6.05 10.47c-.11-.07-.23-.14-.33-.19l-.25.29c-2.73 3.17-5.4 5.69-7.07 5.69-.84 0-1.31-.58-.44-2.08l5.47-9.59c1.64-2.88.07-4.96-2.04-4.96-1.64 0-3.35.88-5.25 2.84l1.42-2.48h-3.79l-6.06 10.49c-.12-.08-.25-.15-.36-.2l-.25.29c-2.73 3.17-5.4 5.69-7.08 5.69-.84 0-1.31-.58-.44-2.08l6.13-10.72h-2.15c.15-1.6-1.5-3.83-3.98-3.83-2.04 0-4.89 1.6-6.49 4.38l-3.92 6.76c-.26-.23-.56-.42-.83-.49l-.26.29c-2.73 3.17-6.09 5.69-9.85 5.69-2.59 0-4.16-2.59-1.9-6.45l1.06-1.86c.69.11 1.39.18 2.15.18 4.05 0 8.64-2.08 11.63-7.3 1.06-1.86 1.53-3.61 1.53-5.1 0-3.43-2.23-5.65-5.03-5.65-2.08 0-4.56 1.46-6.27 4.45l-5.91 10.18c-2.22-1.17-3.39-3.28-3.39-5.4 0-1.75.8-3.5 2.44-4.78l-1.24-2.23c-2.7 1.93-3.9 4.52-3.9 7.08 0 3.03 1.71 5.94 4.78 7.55l-1.13 1.97c-2.66 4.6-1.09 9.7 4.27 9.7 4.24 0 7.35-1.89 9.97-4.37-.83 2.38.37 4.37 3.06 4.37 1.53 0 3.43-.98 5.25-2.48.18 1.46 1.35 2.48 3.28 2.48 1.82 0 3.79-1.13 5.74-2.78l-1.4 2.42h3.83l5.8-10.1c5.8-7.26 8.39-6.31 6.75-3.5l-4.92 8.57c-1.6 2.81-.47 5.4 2.59 5.4 2.04 0 4.28-1.42 6.47-3.42-.46 2.09.51 3.42 2.4 3.42s3.9-1.53 5.62-3.06l-2.08 3.57c-5.14 1.53-8.35 3.65-8.35 6.49 0 3.65 5.58 4.41 8.31-.25l2.92-5c3.17-1 6.3-2.96 9.56-6.2-.52 5.3 6.53 6.5 10.79 1.13h.84c1.38 0 3.26-.52 4.95-1.46l-2.55 4.41h3.83l5.8-10.1c5.8-7.26 8.39-6.31 6.75-3.5l-4.92 8.57c-1.6 2.81-.48 5.4 2.59 5.4s6.75-3.35 9.88-7c-.26-.51-.91-1.1-1.42-1.32Zm-94.38-14.15c1.13-1.93 2.37-2.77 3.43-2.77 1.42 0 2.08.95 2.08 2.33 0 3.54-4.3 9.92-10.21 9.92h-.77l5.47-9.48Zm13.35 14.81c-2.3 3.61-4.56 5.32-6.13 5.32-.84 0-1.31-.58-.44-2.08l5.29-9.23c2.04-3.54 6.09-2.62 4.23.8l-2.95 5.18Zm28.85 13.78c-.8 1.42-2.08 1.2-2.08.18s.91-2.11 3.83-3.25l-1.75 3.06Zm25.53-14.18h-.18c-1.24 0-2.23 1.02-2.23 2.26 0 .47.15.91.37 1.27l-.04.07c-1.79 3.06-6.13 2.48-3.87-1.46l2.88-5 1.82-3.1c2.66-4.52 6.31-2.73 4.01 1.2l-2.77 4.74ZM324.62 333.08c-.22-.58-.87-1.17-1.42-1.31l-.26.29c-1.39 1.64-3.06 3.1-4.56 4.12 1.2-3.61.95-9.15 3.28-14l-2.85-1.53c-1.57 2.15-5 7.11-8.42 11.12 0 .01.02.02.02.03-.02 0-.03-.02-.05-.03l-.25.29c-2.74 3.17-5.4 5.69-7.08 5.69-.84 0-1.64-.84-1.64-2.55v-1.57c2.66.33 5.47-1.42 7.26-4.52l1.02-1.75c3.54-6.05-2.23-8.06-6.09-4.52l5.4-9.37h-3.79l-10.82 18.77c-.23-.19-.48-.36-.69-.46l-.26.29c-2.73 3.17-6.24 5.69-8.9 5.69-2.33 0-3.72-1.46-1.97-4.52l3.9-6.78c2.19-3.76 6.05-3.14 3.79.8l-.55.95h3.1l.55-.95c2.04-3.5.07-6.13-3.03-6.13s-5.51 1.6-7.11 4.38l-3.73 6.4c-.08-.05-.16-.1-.23-.13l-.26.29c-2.73 3.17-5.4 5.69-7.07 5.69-.84 0-1.31-.58-.44-2.08l8.1-14.19h-3.79l-6.75 11.78c-2.88 2.62-5.1 4.08-5.84 3.76-.95-.4 0-1.82.47-2.62l7.4-12.91h-3.79l-7.37 12.74c-.82.75-1.66 1.41-2.45 1.95 1.2-3.61.95-9.15 3.28-14l-2.84-1.53c-1.57 2.15-10.32 13.75-13.75 17.76.33.47.88.95 1.42 1.31 2.15-2.48 9.37-11.78 10.72-13.57-1.5 3.94-.69 11.01-4.3 11.01-1.28 0-1.79-1.39-1.79-1.39l-2.37 1.24s.69 3.06 4.16 3.06c.37 0 .69-.04 1.06-.07.04 0 .07-.04.11-.04 1.93-.25 3.84-1.14 5.63-2.38-.01 1.54.92 2.49 2.51 2.49 2.08 0 4.41-1.9 6.23-3.65-.36 2.04.84 3.65 3.25 3.65s4.98-1.89 7.47-4.38c.03 2.52 1.97 4.38 5.14 4.38s6.14-1.72 8.78-4.03l-2.11 3.67h3.83l4.34-7.55v3.03c0 3.24.62 4.89 3.68 4.89s6.75-3.35 9.88-7c0-.01-.02-.02-.02-.03.02.01.03.02.05.03 2.15-2.48 4.05-5.14 5.4-6.93-1.49 3.94-.69 11.01-4.3 11.01-1.27 0-1.79-1.39-1.79-1.39l-2.37 1.24s.69 3.06 4.16 3.06c.36 0 .69-.04 1.06-.07.03 0 .07-.04.11-.04 3.87-.51 7.7-3.58 10.54-6.89Zm-25.19-2.99 1.09-1.9c4.38-6.09 7.37-4.41 6.02-2.12l-1.82 3.14c-1.13 1.97-4.45 3.36-5.29.88ZM324.47 335.66c-1.24 0-2.19.98-2.19 2.23s.95 2.19 2.19 2.19 2.22-.95 2.22-2.19-.99-2.23-2.22-2.23ZM324.66 334.17h3.83l11.88-20.71h-3.79l-11.92 20.71zM80.41 277.58c0 .29-.06.59-.17.88a2.456 2.456 0 0 1-1.34 1.37c-.33.15-.69.22-1.1.22-.45 0-.89-.08-1.3-.25-.42-.17-.77-.41-1.06-.73-.25-.29-.44-.64-.57-1.05-.14-.41-.2-.83-.2-1.29 0-.86.15-1.65.46-2.37.3-.72.74-1.36 1.3-1.93.25-.25.53-.48.85-.69a10.186 10.186 0 0 1 1.63-.89c.2-.09.33-.15.37-.17l1.35 2c-.25.09-.52.21-.83.35-.31.15-.59.33-.86.54-.27.21-.5.47-.68.76-.18.29-.28.63-.3 1.02.65 0 1.23.19 1.73.58.5.38.74.93.74 1.66Zm7.87 0c0 .29-.06.59-.17.88a2.456 2.456 0 0 1-1.34 1.37c-.33.15-.69.22-1.1.22-.45 0-.88-.08-1.3-.25-.42-.17-.77-.41-1.06-.73-.25-.29-.44-.64-.57-1.05-.13-.41-.2-.83-.2-1.29 0-.86.15-1.65.46-2.37.3-.72.74-1.36 1.3-1.93.25-.25.53-.48.85-.69.31-.21.61-.39.9-.54.28-.15.52-.26.73-.35.2-.09.33-.15.37-.17l1.35 2c-.25.09-.52.21-.83.35-.3.15-.59.33-.86.54-.27.21-.5.47-.68.76-.18.29-.28.63-.31 1.02.65 0 1.23.19 1.73.57.49.38.74.93.74 1.66ZM353.44 336.52c0-.29.06-.59.17-.88a2.456 2.456 0 0 1 1.34-1.37c.33-.15.69-.22 1.1-.22.45 0 .89.08 1.3.25.42.17.77.41 1.06.73.25.29.44.64.58 1.05.13.41.2.83.2 1.29 0 .85-.15 1.65-.46 2.37-.31.72-.74 1.36-1.3 1.93-.25.25-.53.48-.85.69-.31.21-.61.39-.9.54-.28.15-.52.27-.73.35-.2.09-.32.15-.37.17l-1.35-2c.25-.09.52-.21.83-.35.3-.15.59-.33.86-.54.27-.21.5-.47.68-.76.18-.29.28-.63.3-1.01-.65 0-1.23-.19-1.72-.58-.49-.38-.74-.94-.74-1.66Zm-7.87 0c0-.29.06-.59.17-.88a2.456 2.456 0 0 1 1.34-1.37c.33-.15.69-.22 1.1-.22.45 0 .88.08 1.3.25.42.17.77.41 1.06.73.25.29.44.64.57 1.05.14.41.2.83.2 1.29 0 .85-.15 1.65-.46 2.37-.3.72-.74 1.36-1.3 1.93-.25.25-.53.48-.85.69-.32.21-.61.39-.9.54-.28.15-.52.27-.73.35-.2.09-.33.15-.37.17l-1.36-2c.25-.09.53-.21.83-.35.3-.15.59-.33.86-.54.27-.21.5-.47.68-.76.18-.29.28-.63.3-1.01-.65 0-1.23-.19-1.73-.58-.49-.38-.74-.94-.74-1.66Z"/></symbol><symbol id="twitter"><image overflow="visible" width="17" height="15" xlink:href="t.png"/><path fill="#FFF" d="M10.95.144c1.685-.496 2.984.27 3.577 1.179.673-.231 1.331-.481 2.011-.708a2.345 2.345 0 0 1-.857 1.768c.685.17 1.304-.491 1.304-.491-.169 1-1.006 1.788-1.563 2.024-.231 6.75-3.175 11.217-10.077 11.082h-.446c-.41 0-4.164-.46-4.898-1.887 2.271.196 3.893-.422 4.693-1.177-.96-.3-2.679-.477-2.979-2.95.349.106.564.228 1.19.119C1.705 8.247.374 7.53.448 5.33c.285.328 1.067.536 1.34.472C1.085 5.561-.182 2.442.894.85c1.818 1.854 3.735 3.606 7.152 3.773C8.254 2.33 9.183.793 10.95.144z"/></symbol><symbol id="youtube"><image overflow="visible" width="20" height="16" xlink:href="youtube.png"/><path fill="#FFF" d="M17 0H3C1.35 0 0 1.35 0 3v10c0 1.65 1.35 3 3 3h14c1.65 0 3-1.35 3-3V3c0-1.65-1.35-3-3-3zM6.027 11.998V4.002L15.014 8l-8.987 3.998z"/></symbol></svg>