<?xml version="1.0" encoding="utf-8"?>
<!-- Generator: Adobe Illustrator 27.2.0, SVG Export Plug-In . SVG Version: 6.00 Build 0)  -->
<svg version="1.1" id="Layer_1" xmlns="http://www.w3.org/2000/svg" xmlns:xlink="http://www.w3.org/1999/xlink" x="0px" y="0px"
	 viewBox="0 0 49.9 24" style="enable-background:new 0 0 49.9 24;" xml:space="preserve">

<g id="miu">
	<g id="editor_list_view_hambuger_menu_glyph">
		<g>
			<path id="path-1"  fill="currentColor" d="M1.1,0C0.5,0,0,0.4,0,1v2c0,0.6,0.5,1,1.1,1h47.7c0.6,0,1.1-0.4,1.1-1V1c0-0.6-0.5-1-1.1-1H1.1z
				 M1.1,10C0.5,10,0,10.4,0,11v2c0,0.6,0.5,1,1.1,1h47.7c0.6,0,1.1-0.4,1.1-1v-2c0-0.6-0.5-1-1.1-1H1.1z M1.1,20
				C0.5,20,0,20.4,0,21v2c0,0.6,0.5,1,1.1,1h47.7c0.6,0,1.1-0.4,1.1-1v-2c0-0.6-0.5-1-1.1-1H1.1z"/>
		</g>
		<g>
			<path id="path-1_1_" fill="currentColor" d="M1.1,0C0.5,0,0,0.4,0,1v2c0,0.6,0.5,1,1.1,1h47.7c0.6,0,1.1-0.4,1.1-1V1c0-0.6-0.5-1-1.1-1
				H1.1z M1.1,10C0.5,10,0,10.4,0,11v2c0,0.6,0.5,1,1.1,1h47.7c0.6,0,1.1-0.4,1.1-1v-2c0-0.6-0.5-1-1.1-1H1.1z M1.1,20
				C0.5,20,0,20.4,0,21v2c0,0.6,0.5,1,1.1,1h47.7c0.6,0,1.1-0.4,1.1-1v-2c0-0.6-0.5-1-1.1-1H1.1z"/>
		</g>
	</g>
</g>
</svg>
