<?xml version="1.0" encoding="utf-8"?>
<!-- Generator: Adobe Illustrator 27.2.0, SVG Export Plug-In . SVG Version: 6.00 Build 0)  -->
<svg version="1.1" id="Layer_1" xmlns="http://www.w3.org/2000/svg" xmlns:xlink="http://www.w3.org/1999/xlink" x="0px" y="0px"
	 viewBox="-26.7 0 42.7 42.7" style="enable-background:new -26.7 0 42.7 42.7;" xml:space="preserve">
<style type="text/css">
	.st0{fill:#b4b4b4;}
</style>
<g>
	<path class="st0" d="M-5.4,9.4c6.6,0,12,5.4,12,12s-5.4,12-12,12s-12-5.4-12-12S-12,9.4-5.4,9.4 M-5.4,5.4c-8.8,0-16,7.1-16,16
		c0,8.8,7.1,16,16,16c8.8,0,16-7.1,16-16C10.6,12.5,3.5,5.4-5.4,5.4L-5.4,5.4z"/>
</g>
<path d="M-5.4,29.7c4.7,0,8.5-3.8,8.5-8.5c0-4.7-3.8-8.5-8.5-8.5"/>
</svg>
