<?xml version="1.0" encoding="utf-8"?>
<!-- Generator: Adobe Illustrator 27.2.0, SVG Export Plug-In . SVG Version: 6.00 Build 0)  -->
<svg version="1.1" id="Layer_1" xmlns="http://www.w3.org/2000/svg" xmlns:xlink="http://www.w3.org/1999/xlink" x="0px" y="0px"
	 viewBox="0 0 162.3 205.6" style="enable-background:new 0 0 162.3 205.6;" xml:space="preserve">
<style type="text/css">
	.st0{stroke:#231F20;stroke-miterlimit:10;}
</style>
<path class="st0" d="M81.8,8L81,7.9l-76.7,8v140.6L81,202.1l76.7-45.6V15.9L81.8,8z M147.7,150.8L81,190.4l-66.7-39.7V93.2
	l66.4,39.5l0.1,7.2l-45.5-27.1l-0.1,7l45.7,27.5l0.1,7.3l-45.7-27.2l-0.1,7L81,161.7l46.2-27.6v-7l-0.1,0v-2.4v-2.9v-17.5l20.6-12.3
	V150.8z M147.6,84.7l-18.2,10.7l-8.4,5L80.8,76.5l-0.1,7l34.3,20.4l-0.3,0.2l-0.7,0.4l-4.9,2.9L80.8,90.5l-0.1,7l22.4,13.3l-5.3,3.5
	l-0.1,0.1l-16.9-10l-0.1,7l11.1,6.5l-11.3,6.8l-66-39.3l66.1-39.8v0L147.6,84.7z M147.7,77.7l-67-39.5v0l0,0l0,0v0L14.3,77.7V25
	L81,18l66.7,7V77.7z"/>
</svg>
